Foldit-colorsvg-Thin-Condensed.ufo
<glyph name="exclam" format="2">
  <advance width="137"/>
  <unicode hex="0021"/>
  <outline>
    <contour>
      <point x="84" y="0" type="line"/>
      <point x="53" y="0" type="line"/>
      <point x="53" y="24" type="line"/>
      <point x="84" y="24" type="line"/>
    </contour>
    <contour>
      <point x="57" y="680" type="line"/>
      <point x="80" y="703" type="line"/>
      <point x="81" y="703" type="line"/>
      <point x="81" y="104" type="line"/>
      <point x="57" y="104" type="line"/>
    </contour>
  </outline>
</glyph>
<glyph name="quotedbl.color2" format="2">
  <advance width="600"/>
  <unicode hex="0022"/>
  <outline>
    <contour>
      <point x="125" y="665" type="line"/>
      <point x="84" y="665" type="line"/>
      <point x="84" y="700" type="line"/>
      <point x="102" y="700" type="line"/>
    </contour>
  </outline>
</glyph>
<glyph name="dollar" format="2">
  <advance width="253"/>
  <unicode hex="0024"/>
  <anchor x="142" y="0" name="bottom"/>
  <anchor x="138" y="700" name="top"/>
  <outline>
    <contour>
      <point x="53" y="677" type="line"/>
      <point x="76" y="700" type="line"/>
      <point x="77" y="700" type="line"/>
      <point x="77" y="377" type="line"/>
      <point x="76" y="377" type="line"/>
      <point x="53" y="377" type="line"/>
    </contour>
    <contour>
      <point x="177" y="700" type="line"/>
      <point x="200" y="677" type="line"/>
      <point x="200" y="676" type="line"/>
      <point x="77" y="676" type="line"/>
      <point x="77" y="700" type="line"/>
    </contour>
    <contour>
      <point x="200" y="24" type="line"/>
      <point x="177" y="0" type="line"/>
      <point x="176" y="0" type="line"/>
      <point x="176" y="377" type="line"/>
      <point x="177" y="377" type="line"/>
      <point x="200" y="353" type="line"/>
    </contour>
    <contour>
      <point x="76" y="0" type="line"/>
      <point x="53" y="23" type="line"/>
      <point x="53" y="24" type="line"/>
      <point x="176" y="24" type="line"/>
      <point x="176" y="23" type="line"/>
      <point x="176" y="0" type="line"/>
    </contour>
    <contour>
      <point x="137" y="756" type="line"/>
      <point x="138" y="-31" type="line"/>
      <point x="115" y="-54" type="line"/>
      <point x="114" y="-54" type="line"/>
      <point x="113" y="733" type="line"/>
      <point x="136" y="756" type="line"/>
    </contour>
    <contour>
      <point x="76" y="353" type="line"/>
      <point x="53" y="376" type="line"/>
      <point x="53" y="377" type="line"/>
      <point x="176" y="377" type="line"/>
      <point x="176" y="354" type="line"/>
      <point x="176" y="353" type="line"/>
    </contour>
  </outline>
</glyph>
<glyph name="percent.color4" format="2">
  <advance width="600"/>
  <unicode hex="0025"/>
  <outline>
    <contour>
      <point x="76" y="380" type="line"/>
      <point x="53" y="403" type="line"/>
      <point x="53" y="404" type="line"/>
      <point x="127" y="404" type="line"/>
      <point x="127" y="380" type="line"/>
    </contour>
  </outline>
</glyph>
<glyph name="hyphen" format="2">
  <advance width="181"/>
  <unicode hex="002D"/>
  <outline>
    <contour>
      <point x="128" y="323" type="line"/>
      <point x="53" y="323" type="line"/>
      <point x="53" y="357" type="line"/>
      <point x="128" y="357" type="line"/>
      <point x="128" y="356" type="line"/>
    </contour>
  </outline>
</glyph>
<glyph name="zero.color2" format="2">
  <advance width="600"/>
  <unicode hex="0030"/>
  <outline>
    <contour>
      <point x="214" y="670" type="line"/>
      <point x="237" y="647" type="line"/>
      <point x="237" y="646" type="line"/>
      <point x="77" y="646" type="line"/>
      <point x="77" y="670" type="line"/>
    </contour>
  </outline>
</glyph>
<glyph name="three" format="2">
  <advance width="290"/>
  <unicode hex="0033"/>
  <outline>
    <contour>
      <point x="216" y="427" type="line"/>
      <point x="193" y="427" type="line"/>
      <point x="193" y="670" type="line"/>
      <point x="194" y="670" type="line"/>
      <point x="216" y="637" type="line"/>
    </contour>
    <contour>
      <point x="68" y="670" type="line"/>
      <point x="193" y="670" type="line"/>
      <point x="193" y="646" type="line"/>
      <point x="45" y="646" type="line"/>
      <point x="45" y="647" type="line"/>
    </contour>
    <contour>
      <point x="217" y="24" type="line"/>
      <point x="194" y="0" type="line"/>
      <point x="193" y="0" type="line"/>
      <point x="193" y="427" type="line"/>
      <point x="194" y="427" type="line"/>
      <point x="217" y="403" type="line"/>
    </contour>
    <contour>
      <point x="65" y="403" type="line"/>
      <point x="65" y="427" type="line"/>
      <point x="193" y="427" type="line"/>
      <point x="193" y="403" type="line"/>
    </contour>
    <contour>
      <point x="58" y="0" type="line"/>
      <point x="35" y="23" type="line"/>
      <point x="35" y="24" type="line"/>
      <point x="193" y="24" type="line"/>
      <point x="193" y="23" type="line"/>
      <point x="193" y="0" type="line"/>
    </contour>
  </outline>
</glyph>
<glyph name="nine.color4" format="2">
  <advance width="600"/>
  <unicode hex="0039"/>
  <outline>
    <contour>
      <point x="209" y="670" type="line"/>
      <point x="232" y="647" type="line"/>
      <point x="232" y="646" type="line"/>
      <point x="72" y="646" type="line"/>
      <point x="72" y="647" type="line"/>
      <point x="72" y="670" type="line"/>
    </contour>
  </outline>
</glyph>
<glyph name="semicolon.color0" format="2">
  <advance width="600"/>
  <unicode hex="003B"/>
  <outline>
    <contour>
      <point x="64" y="306" type="line"/>
      <point x="33" y="306" type="line"/>
      <point x="33" y="330" type="line"/>
      <point x="64" y="330" type="line"/>
    </contour>
  </outline>
</glyph>
<glyph name="B.color0" format="2">
  <advance width="600"/>
  <unicode hex="0042"/>
  <outline>
    <contour>
      <point x="250" y="23" type="line"/>
      <point x="226" y="0" type="line"/>
      <point x="226" y="0" type="line"/>
      <point x="226" y="377" type="line"/>
      <point x="226" y="377" type="line"/>
      <point x="250" y="354" type="line"/>
    </contour>
  </outline>
</glyph>
<glyph name="L" format="2">
  <advance width="256"/>
  <unicode hex="004C"/>
  <anchor x="152" y="0" name="bottom"/>
  <anchor x="73" y="700" name="top"/>
  <outline>
    <contour>
      <point x="53" y="700" type="line"/>
      <point x="76" y="700" type="line"/>
      <point x="77" y="700" type="line"/>
      <point x="77" y="24" type="line"/>
      <point x="53" y="24" type="line"/>
    </contour>
    <contour>
      <point x="76" y="0" type="line"/>
      <point x="53" y="23" type="line"/>
      <point x="53" y="24" type="line"/>
      <point x="256" y="24" type="line"/>
      <point x="256" y="0" type="line"/>
    </contour>
  </outline>
</glyph>
<glyph name="M" format="2">
  <advance width="419"/>
  <unicode hex="004D"/>
  <outline>
    <contour>
      <point x="53" y="0" type="line"/>
      <point x="53" y="679" type="line"/>
      <point x="77" y="655" type="line"/>
      <point x="77" y="0" type="line"/>
    </contour>
    <contour>
      <point x="365" y="680" type="line"/>
      <point x="222" y="-3" type="line"/>
      <point x="196" y="-3" type="line"/>
      <point x="342" y="703" type="line"/>
    </contour>
    <contour>
      <point x="196" y="-3" type="line"/>
      <point x="53" y="679" type="line"/>
      <point x="53" y="680" type="line"/>
      <point x="76" y="703" type="line"/>
      <point x="77" y="703" type="line"/>
      <point x="222" y="-2" type="line"/>
      <point x="222" y="-3" type="line"/>
    </contour>
    <contour>
      <point x="342" y="0" type="line"/>
      <point x="342" y="703" type="line"/>
      <point x="343" y="703" type="line"/>
      <point x="366" y="679" type="line"/>
      <point x="366" y="0" type="line"/>
    </contour>
  </outline>
</glyph>
<glyph name="P" format="2">
  <advance width="244"/>
  <unicode hex="0050"/>
  <outline>
    <contour>
      <point x="53" y="677" type="line"/>
      <point x="76" y="700" type="line"/>
      <point x="77" y="700" type="line"/>
      <point x="77" y="0" type="line"/>
      <point x="53" y="0" type="line"/>
    </contour>
    <contour>
      <point x="198" y="700" type="line"/>
      <point x="221" y="677" type="line"/>
      <point x="221" y="676" type="line"/>
      <point x="77" y="676" type="line"/>
      <point x="77" y="700" type="line"/>
    </contour>
    <contour>
      <point x="221" y="376" type="line"/>
      <point x="198" y="353" type="line"/>
      <point x="197" y="353" type="line"/>
      <point x="197" y="676" type="line"/>
      <point x="221" y="676" type="line"/>
    </contour>
    <contour>
      <point x="77" y="353" type="line"/>
      <point x="77" y="376" type="line"/>
      <point x="77" y="377" type="line"/>
      <point x="197" y="377" type="line"/>
      <point x="197" y="353" type="line"/>
    </contour>
  </outline>
</glyph>
<glyph name="Y" format="2">
  <advance width="250"/>
  <unicode hex="0059"/>
  <anchor x="129" y="0" name="bottom"/>
  <anchor x="127" y="700" name="top"/>
  <outline>
    <contour>
      <point x="23" y="700" type="line"/>
      <point x="47" y="700" type="line"/>
      <point x="140" y="356" type="line"/>
      <point x="118" y="350" type="line"/>
      <point x="117" y="350" type="line"/>
    </contour>
    <contour>
      <point x="227" y="700" type="line"/>
      <point x="141" y="350" type="line"/>
      <point x="118" y="350" type="line"/>
      <point x="203" y="700" type="line"/>
    </contour>
    <contour>
      <point x="141" y="0" type="line"/>
      <point x="117" y="0" type="line"/>
      <point x="117" y="350" type="line"/>
      <point x="141" y="350" type="line"/>
    </contour>
  </outline>
</glyph>
<glyph name="grave" format="2">
  <advance width="600"/>
  <unicode hex="0060"/>
  <anchor x="309" y="500" name="_top"/>
  <outline>
    <contour>
      <point x="325" y="570" type="line"/>
      <point x="301" y="570" type="line"/>
      <point x="269" y="699" type="line"/>
      <point x="269" y="700" type="line"/>
      <point x="300" y="700" type="line"/>
    </contour>
  </outline>
</glyph>
<glyph name="b.color0" format="2">
  <advance width="600"/>
  <unicode hex="0062"/>
  <outline>
    <contour>
      <point x="51" y="730" type="line"/>
      <point x="75" y="730" type="line"/>
      <point x="75" y="25" type="line"/>
      <point x="75" y="24" type="line"/>
      <point x="51" y="24" type="line"/>
    </contour>
  </outline>
</glyph>
<glyph name="f.color0" format="2">
  <advance width="600"/>
  <unicode hex="0066"/>
  <outline>
    <contour>
      <point x="74" y="353" type="line"/>
      <point x="51" y="377" type="line"/>
      <point x="128" y="377" type="line"/>
      <point x="128" y="353" type="line"/>
    </contour>
  </outline>
</glyph>
<glyph name="g.color3" format="2">
  <advance width="600"/>
  <unicode hex="0067"/>
  <outline>
    <contour>
      <point x="164" y="476" type="line"/>
      <point x="74" y="476" type="line"/>
      <point x="74" y="500" type="line"/>
      <point x="187" y="500" type="line"/>
      <point x="187" y="499" type="line"/>
    </contour>
  </outline>
</glyph>
<glyph name="j" format="2">
  <advance width="124"/>
  <unicode hex="006A"/>
  <outline>
    <contour>
      <point x="50" y="480" type="line"/>
      <point x="73" y="503" type="line"/>
      <point x="74" y="503" type="line"/>
      <point x="74" y="-177" type="line"/>
      <point x="51" y="-200" type="line"/>
      <point x="50" y="-200" type="line"/>
    </contour>
    <contour>
      <point x="74" y="565" type="line"/>
      <point x="51" y="542" type="line"/>
      <point x="50" y="542" type="line"/>
      <point x="50" y="615" type="line"/>
      <point x="74" y="615" type="line"/>
    </contour>
    <contour>
      <point x="50" y="-200" type="line"/>
      <point x="-12" y="-200" type="line"/>
      <point x="-12" y="-176" type="line"/>
      <point x="50" y="-176" type="line"/>
      <point x="50" y="-177" type="line"/>
    </contour>
  </outline>
</glyph>
<glyph name="m" format="2">
  <advance width="270"/>
  <unicode hex="006D"/>
  <outline>
    <contour>
      <point x="50" y="477" type="line"/>
      <point x="73" y="500" type="line"/>
      <point x="74" y="500" type="line"/>
      <point x="74" y="0" type="line"/>
      <point x="50" y="0" type="line"/>
    </contour>
    <contour>
      <point x="147" y="20" type="line"/>
      <point x="124" y="-3" type="line"/>
      <point x="123" y="-3" type="line"/>
      <point x="123" y="476" type="line"/>
      <point x="147" y="476" type="line"/>
    </contour>
    <contour>
      <point x="220" y="20" type="line"/>
      <point x="197" y="-3" type="line"/>
      <point x="196" y="-3" type="line"/>
      <point x="196" y="476" type="line"/>
      <point x="220" y="476" type="line"/>
    </contour>
    <contour>
      <point x="197" y="500" type="line"/>
      <point x="220" y="477" type="line"/>
      <point x="220" y="476" type="line"/>
      <point x="147" y="476" type="line"/>
      <point x="147" y="500" type="line"/>
    </contour>
    <contour>
      <point x="124" y="500" type="line"/>
      <point x="147" y="477" type="line"/>
      <point x="147" y="476" type="line"/>
      <point x="74" y="476" type="line"/>
      <point x="74" y="500" type="line"/>
    </contour>
  </outline>
</glyph>
<glyph name="o" format="2">
  <advance width="198"/>
  <unicode hex="006F"/>
  <anchor x="99" y="0" name="bottom"/>
  <anchor x="124" y="500" name="horn"/>
  <anchor x="99" y="500" name="top"/>
  <outline>
    <contour>
      <point x="50" y="477" type="line"/>
      <point x="73" y="500" type="line"/>
      <point x="74" y="500" type="line"/>
      <point x="74" y="24" type="line"/>
      <point x="50" y="24" type="line"/>
    </contour>
    <contour>
      <point x="125" y="500" type="line"/>
      <point x="148" y="477" type="line"/>
      <point x="148" y="476" type="line"/>
      <point x="74" y="476" type="line"/>
      <point x="74" y="500" type="line"/>
    </contour>
    <contour>
      <point x="148" y="23" type="line"/>
      <point x="125" y="0" type="line"/>
      <point x="124" y="0" type="line"/>
      <point x="124" y="476" type="line"/>
      <point x="148" y="476" type="line"/>
    </contour>
    <contour>
      <point x="73" y="0" type="line"/>
      <point x="50" y="23" type="line"/>
      <point x="50" y="24" type="line"/>
      <point x="124" y="24" type="line"/>
      <point x="124" y="0" type="line"/>
    </contour>
  </outline>
</glyph>
<glyph name="s.color1" format="2">
  <advance width="600"/>
  <unicode hex="0073"/>
  <outline>
    <contour>
      <point x="108" y="24" type="line"/>
      <point x="35" y="467" type="line"/>
      <point x="58" y="500" type="line"/>
      <point x="131" y="25" type="line"/>
      <point x="131" y="24" type="line"/>
    </contour>
  </outline>
</glyph>
<glyph name="t.color0" format="2">
  <advance width="600"/>
  <unicode hex="0074"/>
  <outline>
    <contour>
      <point x="74" y="500" type="line"/>
      <point x="128" y="500" type="line"/>
      <point x="128" y="476" type="line"/>
      <point x="51" y="476" type="line"/>
    </contour>
  </outline>
</glyph>
<glyph name="v.color1" format="2">
  <advance width="600"/>
  <unicode hex="0076"/>
  <outline>
    <contour>
      <point x="50" y="480" type="line"/>
      <point x="73" y="503" type="line"/>
      <point x="74" y="503" type="line"/>
      <point x="74" y="24" type="line"/>
      <point x="50" y="24" type="line"/>
    </contour>
  </outline>
</glyph>
<glyph name="x.color0" format="2">
  <advance width="600"/>
  <unicode hex="0078"/>
  <outline>
    <contour>
      <point x="22" y="500" type="line"/>
      <point x="46" y="500" type="line"/>
      <point x="104" y="254" type="line"/>
      <point x="82" y="250" type="line"/>
      <point x="81" y="250" type="line"/>
    </contour>
  </outline>
</glyph>
<glyph name="x" format="2">
  <advance width="185"/>
  <unicode hex="0078"/>
  <outline>
    <contour>
      <point x="22" y="500" type="line"/>
      <point x="46" y="500" type="line"/>
      <point x="104" y="254" type="line"/>
      <point x="82" y="250" type="line"/>
      <point x="81" y="250" type="line"/>
    </contour>
    <contour>
      <point x="156" y="500" type="line"/>
      <point x="105" y="250" type="line"/>
      <point x="82" y="250" type="line"/>
      <point x="132" y="500" type="line"/>
    </contour>
    <contour>
      <point x="163" y="0" type="line"/>
      <point x="139" y="0" type="line"/>
      <point x="82" y="246" type="line"/>
      <point x="104" y="250" type="line"/>
      <point x="105" y="250" type="line"/>
    </contour>
    <contour>
      <point x="29" y="0" type="line"/>
      <point x="81" y="250" type="line"/>
      <point x="104" y="250" type="line"/>
      <point x="53" y="0" type="line"/>
    </contour>
  </outline>
</glyph>
<glyph name="z.color1" format="2">
  <advance width="600"/>
  <unicode hex="007A"/>
  <outline>
    <contour>
      <point x="46" y="24" type="line"/>
      <point x="23" y="24" type="line"/>
      <point x="23" y="25" type="line"/>
      <point x="126" y="500" type="line"/>
      <point x="149" y="467" type="line"/>
    </contour>
  </outline>
</glyph>
<glyph name="z.color2" format="2">
  <advance width="600"/>
  <unicode hex="007A"/>
  <outline>
    <contour>
      <point x="149" y="0" type="line"/>
      <point x="46" y="0" type="line"/>
      <point x="23" y="24" type="line"/>
      <point x="149" y="24" type="line"/>
      <point x="149" y="23" type="line"/>
    </contour>
  </outline>
</glyph>
<glyph name="braceright.color1" format="2">
  <advance width="600"/>
  <unicode hex="007D"/>
  <outline>
    <contour>
      <point x="110" y="314" type="line"/>
      <point x="110" y="700" type="line"/>
      <point x="134" y="676" type="line"/>
      <point x="134" y="284" type="line"/>
      <point x="133" y="284" type="line"/>
    </contour>
  </outline>
</glyph>
<glyph name="braceright" format="2">
  <advance width="232"/>
  <unicode hex="007D"/>
  <outline>
    <contour>
      <point x="20" y="676" type="line"/>
      <point x="20" y="700" type="line"/>
      <point x="110" y="700" type="line"/>
      <point x="110" y="676" type="line"/>
    </contour>
    <contour>
      <point x="110" y="314" type="line"/>
      <point x="110" y="700" type="line"/>
      <point x="134" y="676" type="line"/>
      <point x="134" y="284" type="line"/>
      <point x="133" y="284" type="line"/>
    </contour>
    <contour>
      <point x="20" y="-100" type="line"/>
      <point x="20" y="-76" type="line"/>
      <point x="110" y="-76" type="line"/>
      <point x="110" y="-100" type="line"/>
    </contour>
    <contour>
      <point x="179" y="284" type="line"/>
      <point x="134" y="284" type="line"/>
      <point x="134" y="308" type="line"/>
      <point x="179" y="308" type="line"/>
    </contour>
    <contour>
      <point x="110" y="278" type="line"/>
      <point x="133" y="308" type="line"/>
      <point x="134" y="308" type="line"/>
      <point x="134" y="-76" type="line"/>
      <point x="110" y="-100" type="line"/>
    </contour>
  </outline>
</glyph>
<glyph name="asciitilde.color0" format="2">
  <advance width="600"/>
  <unicode hex="007E"/>
  <outline>
    <contour>
      <point x="241" y="353" type="line"/>
      <point x="241" y="301" type="line"/>
      <point x="217" y="302" type="line"/>
      <point x="217" y="353" type="line"/>
    </contour>
  </outline>
</glyph>
<glyph name="cent.color1" format="2">
  <advance width="600"/>
  <unicode hex="00A2"/>
  <outline>
    <contour>
      <point x="87" y="523" type="line"/>
      <point x="110" y="546" type="line"/>
      <point x="111" y="546" type="line"/>
      <point x="112" y="487" type="line"/>
      <point x="111" y="487" type="line"/>
      <point x="88" y="487" type="line"/>
    </contour>
  </outline>
</glyph>
<glyph name="sterling.color0" format="2">
  <advance width="600"/>
  <unicode hex="00A3"/>
  <outline>
    <contour>
      <point x="275" y="399" type="line"/>
      <point x="275" y="375" type="line"/>
      <point x="53" y="374" type="line"/>
      <point x="53" y="398" type="line"/>
    </contour>
  </outline>
</glyph>
<glyph name="sterling.color1" format="2">
  <advance width="600"/>
  <unicode hex="00A3"/>
  <outline>
    <contour>
      <point x="103" y="677" type="line"/>
      <point x="126" y="700" type="line"/>
      <point x="127" y="700" type="line"/>
      <point x="127" y="24" type="line"/>
      <point x="126" y="24" type="line"/>
      <point x="103" y="24" type="line"/>
    </contour>
  </outline>
</glyph>
<glyph name="currency.color1" format="2">
  <advance width="600"/>
  <unicode hex="00A4"/>
  <outline>
    <contour>
      <point x="116" y="150" type="line"/>
      <point x="77" y="97" type="line"/>
      <point x="53" y="120" type="line"/>
      <point x="93" y="174" type="line"/>
    </contour>
  </outline>
</glyph>
<glyph name="section.color0" format="2">
  <advance width="600"/>
  <unicode hex="00A7"/>
  <outline>
    <contour>
      <point x="140" y="195" type="line"/>
      <point x="219" y="245" type="line"/>
      <point x="213" y="201" type="line"/>
      <point x="130" y="148" type="line"/>
    </contour>
  </outline>
</glyph>
<glyph name="guillemetleft.color1" format="2">
  <advance width="600"/>
  <unicode hex="00AB"/>
  <outline>
    <contour>
      <point x="266" y="100" type="line"/>
      <point x="123" y="276" type="line"/>
      <point x="123" y="277" type="line"/>
      <point x="152" y="277" type="line"/>
      <point x="295" y="101" type="line"/>
      <point x="295" y="100" type="line"/>
    </contour>
  </outline>
</glyph>
<glyph name="registered.color7" format="2">
  <advance width="600"/>
  <unicode hex="00AE"/>
  <outline>
    <contour>
      <point x="33" y="432" type="line"/>
      <point x="33" y="677" type="line"/>
      <point x="56" y="677" type="line"/>
      <point x="56" y="410" type="line"/>
      <point x="55" y="410" type="line"/>
    </contour>
  </outline>
</glyph>
<glyph name="degree.color2" format="2">
  <advance width="600"/>
  <unicode hex="00B0"/>
  <outline>
    <contour>
      <point x="92" y="597" type="line"/>
      <point x="70" y="575" type="line"/>
      <point x="69" y="575" type="line"/>
      <point x="69" y="677" type="line"/>
      <point x="92" y="677" type="line"/>
    </contour>
  </outline>
</glyph>
<glyph name="plusminus.color1" format="2">
  <advance width="600"/>
  <unicode hex="00B1"/>
  <outline>
    <contour>
      <point x="53" y="373" type="line"/>
      <point x="137" y="373" type="line"/>
      <point x="137" y="349" type="line"/>
      <point x="54" y="349" type="line"/>
    </contour>
  </outline>
</glyph>
<glyph name="threesuperior.color0" format="2">
  <advance width="600"/>
  <unicode hex="00B3"/>
  <outline>
    <contour>
      <point x="174" y="587" type="line"/>
      <point x="151" y="587" type="line"/>
      <point x="151" y="700" type="line"/>
      <point x="152" y="700" type="line"/>
      <point x="174" y="667" type="line"/>
    </contour>
  </outline>
</glyph>
<glyph name="threesuperior.color2" format="2">
  <advance width="600"/>
  <unicode hex="00B3"/>
  <outline>
    <contour>
      <point x="175" y="454" type="line"/>
      <point x="152" y="430" type="line"/>
      <point x="151" y="430" type="line"/>
      <point x="151" y="587" type="line"/>
      <point x="152" y="587" type="line"/>
      <point x="175" y="563" type="line"/>
    </contour>
  </outline>
</glyph>
<glyph name="micro.color1" format="2">
  <advance width="600"/>
  <unicode hex="00B5"/>
  <outline>
    <contour>
      <point x="77" y="21" type="line"/>
      <point x="126" y="21" type="line"/>
      <point x="126" y="-3" type="line"/>
      <point x="77" y="-3" type="line"/>
    </contour>
  </outline>
</glyph>
<glyph name="periodcentered" format="2">
  <advance width="137"/>
  <unicode hex="00B7"/>
  <outline>
    <contour>
      <point x="64" y="329" type="line"/>
      <point x="33" y="329" type="line"/>
      <point x="33" y="353" type="line"/>
      <point x="64" y="353" type="line"/>
    </contour>
  </outline>
</glyph>
<glyph name="onequarter.color7" format="2">
  <advance width="600"/>
  <unicode hex="00BC"/>
  <outline>
    <contour>
      <point x="414" y="0" type="line"/>
      <point x="390" y="0" type="line"/>
      <point x="390" y="128" type="line"/>
      <point x="391" y="128" type="line"/>
      <point x="414" y="104" type="line"/>
    </contour>
  </outline>
</glyph>
<glyph name="threequarters.color0" format="2">
  <advance width="600"/>
  <unicode hex="00BE"/>
  <outline>
    <contour>
      <point x="174" y="587" type="line"/>
      <point x="151" y="587" type="line"/>
      <point x="151" y="700" type="line"/>
      <point x="152" y="700" type="line"/>
      <point x="174" y="667" type="line"/>
    </contour>
  </outline>
</glyph>
<glyph name="threequarters.color4" format="2">
  <advance width="600"/>
  <unicode hex="00BE"/>
  <outline>
    <contour>
      <point x="76" y="430" type="line"/>
      <point x="53" y="453" type="line"/>
      <point x="53" y="454" type="line"/>
      <point x="151" y="454" type="line"/>
      <point x="151" y="453" type="line"/>
      <point x="151" y="430" type="line"/>
    </contour>
  </outline>
</glyph>
<glyph name="questiondown.color1" format="2">
  <advance width="600"/>
  <unicode hex="00BF"/>
  <outline>
    <contour>
      <point x="53" y="-7" type="line"/>
      <point x="53" y="393" type="line"/>
      <point x="76" y="393" type="line"/>
      <point x="77" y="393" type="line"/>
      <point x="77" y="-30" type="line"/>
      <point x="76" y="-30" type="line"/>
    </contour>
  </outline>
</glyph>
<glyph name="AE.color1" format="2">
  <advance width="600"/>
  <unicode hex="00C6"/>
  <outline>
    <contour>
      <point x="77" y="0" type="line"/>
      <point x="53" y="0" type="line"/>
      <point x="53" y="677" type="line"/>
      <point x="76" y="700" type="line"/>
      <point x="77" y="700" type="line"/>
    </contour>
  </outline>
</glyph>
<glyph name="Ccedilla" format="2">
  <advance width="235"/>
  <unicode hex="00C7"/>
  <anchor x="140" y="0" name="bottom"/>
  <anchor x="138" y="700" name="top"/>
  <outline>
    <contour>
      <point x="53" y="677" type="line"/>
      <point x="76" y="700" type="line"/>
      <point x="77" y="700" type="line"/>
      <point x="77" y="24" type="line"/>
      <point x="53" y="24" type="line"/>
    </contour>
    <contour>
      <point x="197" y="700" type="line"/>
      <point x="220" y="677" type="line"/>
      <point x="220" y="676" type="line"/>
      <point x="77" y="676" type="line"/>
      <point x="77" y="700" type="line"/>
    </contour>
    <contour>
      <point x="76" y="0" type="line"/>
      <point x="53" y="23" type="line"/>
      <point x="53" y="24" type="line"/>
      <point x="220" y="24" type="line"/>
      <point x="197" y="0" type="line"/>
    </contour>
    <contour>
      <point x="118" y="-109" type="line"/>
      <point x="100" y="-91" type="line"/>
      <point x="100" y="-90" type="line"/>
      <point x="150" y="-90" type="line"/>
      <point x="150" y="-109" type="line"/>
    </contour>
    <contour>
      <point x="171" y="-91" type="line"/>
      <point x="151" y="-109" type="line"/>
      <point x="150" y="-109" type="line"/>
      <point x="150" y="-44" type="line"/>
      <point x="171" y="-44" type="line"/>
    </contour>
    <contour>
      <point x="153" y="-25" type="line"/>
      <point x="171" y="-43" type="line"/>
      <point x="171" y="-44" type="line"/>
      <point x="136" y="-44" type="line"/>
      <point x="136" y="-25" type="line"/>
    </contour>
    <contour>
      <point x="115" y="-44" type="line"/>
      <point x="115" y="-43" type="line"/>
      <point x="127" y="0" type="line"/>
      <point x="151" y="0" type="line"/>
      <point x="151" y="-1" type="line"/>
      <point x="136" y="-44" type="line"/>
    </contour>
  </outline>
</glyph>
<glyph name="Igrave.color5" format="2">
  <advance width="600"/>
  <unicode hex="00CC"/>
  <outline>
    <contour>
      <point x="129" y="740" type="line"/>
      <point x="105" y="740" type="line"/>
      <point x="88" y="859" type="line"/>
      <point x="88" y="860" type="line"/>
      <point x="119" y="860" type="line"/>
    </contour>
  </outline>
</glyph>
<glyph name="Igrave" format="2">
  <advance width="226"/>
  <unicode hex="00CC"/>
  <anchor x="112" y="0" name="bottom"/>
  <anchor x="115" y="700" name="top"/>
  <outline>
    <contour>
      <point x="101" y="676" type="line"/>
      <point x="124" y="700" type="line"/>
      <point x="125" y="700" type="line"/>
      <point x="125" y="24" type="line"/>
      <point x="102" y="0" type="line"/>
      <point x="101" y="0" type="line"/>
    </contour>
    <contour>
      <point x="101" y="676" type="line"/>
      <point x="20" y="676" type="line"/>
      <point x="20" y="700" type="line"/>
      <point x="124" y="700" type="line"/>
    </contour>
    <contour>
      <point x="205" y="676" type="line"/>
      <point x="125" y="676" type="line"/>
      <point x="125" y="700" type="line"/>
      <point x="205" y="700" type="line"/>
    </contour>
    <contour>
      <point x="125" y="24" type="line"/>
      <point x="206" y="24" type="line"/>
      <point x="206" y="0" type="line"/>
      <point x="102" y="0" type="line"/>
    </contour>
    <contour>
      <point x="21" y="24" type="line"/>
      <point x="101" y="24" type="line"/>
      <point x="101" y="0" type="line"/>
      <point x="21" y="0" type="line"/>
    </contour>
    <contour>
      <point x="129" y="740" type="line"/>
      <point x="105" y="740" type="line"/>
      <point x="88" y="859" type="line"/>
      <point x="88" y="860" type="line"/>
      <point x="119" y="860" type="line"/>
    </contour>
  </outline>
</glyph>
<glyph name="Icircumflex.color6" format="2">
  <advance width="600"/>
  <unicode hex="00CE"/>
  <outline>
    <contour>
      <point x="55" y="760" type="line"/>
      <point x="55" y="761" type="line"/>
      <point x="101" y="850" type="line"/>
      <point x="124" y="850" type="line"/>
      <point x="79" y="760" type="line"/>
    </contour>
  </outline>
</glyph>
<glyph name="Icircumflex" format="2">
  <advance width="226"/>
  <unicode hex="00CE"/>
  <anchor x="112" y="0" name="bottom"/>
  <anchor x="115" y="700" name="top"/>
  <outline>
    <contour>
      <point x="101" y="676" type="line"/>
      <point x="124" y="700" type="line"/>
      <point x="125" y="700" type="line"/>
      <point x="125" y="24" type="line"/>
      <point x="102" y="0" type="line"/>
      <point x="101" y="0" type="line"/>
    </contour>
    <contour>
      <point x="101" y="676" type="line"/>
      <point x="20" y="676" type="line"/>
      <point x="20" y="700" type="line"/>
      <point x="124" y="700" type="line"/>
    </contour>
    <contour>
      <point x="205" y="676" type="line"/>
      <point x="125" y="676" type="line"/>
      <point x="125" y="700" type="line"/>
      <point x="205" y="700" type="line"/>
    </contour>
    <contour>
      <point x="125" y="24" type="line"/>
      <point x="206" y="24" type="line"/>
      <point x="206" y="0" type="line"/>
      <point x="102" y="0" type="line"/>
    </contour>
    <contour>
      <point x="21" y="24" type="line"/>
      <point x="101" y="24" type="line"/>
      <point x="101" y="0" type="line"/>
      <point x="21" y="0" type="line"/>
    </contour>
    <contour>
      <point x="169" y="760" type="line"/>
      <point x="145" y="760" type="line"/>
      <point x="101" y="850" type="line"/>
      <point x="124" y="850" type="line"/>
      <point x="125" y="850" type="line"/>
      <point x="169" y="761" type="line"/>
    </contour>
    <contour>
      <point x="55" y="760" type="line"/>
      <point x="55" y="761" type="line"/>
      <point x="101" y="850" type="line"/>
      <point x="124" y="850" type="line"/>
      <point x="79" y="760" type="line"/>
    </contour>
  </outline>
</glyph>
<glyph name="Idieresis.color5" format="2">
  <advance width="600"/>
  <unicode hex="00CF"/>
  <outline>
    <contour>
      <point x="98" y="811" type="line"/>
      <point x="67" y="811" type="line"/>
      <point x="67" y="845" type="line"/>
      <point x="98" y="845" type="line"/>
    </contour>
  </outline>
</glyph>
<glyph name="Idieresis" format="2">
  <advance width="226"/>
  <unicode hex="00CF"/>
  <anchor x="112" y="0" name="bottom"/>
  <anchor x="115" y="700" name="top"/>
  <outline>
    <contour>
      <point x="101" y="676" type="line"/>
      <point x="124" y="700" type="line"/>
      <point x="125" y="700" type="line"/>
      <point x="125" y="24" type="line"/>
      <point x="102" y="0" type="line"/>
      <point x="101" y="0" type="line"/>
    </contour>
    <contour>
      <point x="101" y="676" type="line"/>
      <point x="20" y="676" type="line"/>
      <point x="20" y="700" type="line"/>
      <point x="124" y="700" type="line"/>
    </contour>
    <contour>
      <point x="205" y="676" type="line"/>
      <point x="125" y="676" type="line"/>
      <point x="125" y="700" type="line"/>
      <point x="205" y="700" type="line"/>
    </contour>
    <contour>
      <point x="125" y="24" type="line"/>
      <point x="206" y="24" type="line"/>
      <point x="206" y="0" type="line"/>
      <point x="102" y="0" type="line"/>
    </contour>
    <contour>
      <point x="21" y="24" type="line"/>
      <point x="101" y="24" type="line"/>
      <point x="101" y="0" type="line"/>
      <point x="21" y="0" type="line"/>
    </contour>
    <contour>
      <point x="98" y="811" type="line"/>
      <point x="67" y="811" type="line"/>
      <point x="67" y="845" type="line"/>
      <point x="98" y="845" type="line"/>
    </contour>
    <contour>
      <point x="163" y="811" type="line"/>
      <point x="132" y="811" type="line"/>
      <point x="132" y="845" type="line"/>
      <point x="163" y="845" type="line"/>
    </contour>
  </outline>
</glyph>
<glyph name="Eth.color4" format="2">
  <advance width="600"/>
  <unicode hex="00D0"/>
  <outline>
    <contour>
      <point x="53" y="0" type="line"/>
      <point x="53" y="23" type="line"/>
      <point x="53" y="24" type="line"/>
      <point x="198" y="24" type="line"/>
      <point x="198" y="0" type="line"/>
    </contour>
  </outline>
</glyph>
<glyph name="Ntilde.color5" format="2">
  <advance width="600"/>
  <unicode hex="00D1"/>
  <outline>
    <contour>
      <point x="107" y="837" type="line"/>
      <point x="107" y="838" type="line"/>
      <point x="129" y="847" type="line"/>
      <point x="130" y="847" type="line"/>
      <point x="226" y="795" type="line"/>
      <point x="226" y="794" type="line"/>
      <point x="204" y="785" type="line"/>
      <point x="203" y="785" type="line"/>
    </contour>
  </outline>
</glyph>
<glyph name="Ugrave.color1" format="2">
  <advance width="600"/>
  <unicode hex="00D9"/>
  <outline>
    <contour>
      <point x="76" y="0" type="line"/>
      <point x="53" y="23" type="line"/>
      <point x="53" y="24" type="line"/>
      <point x="196" y="24" type="line"/>
      <point x="196" y="0" type="line"/>
    </contour>
  </outline>
</glyph>
<glyph name="Yacute.color3" format="2">
  <advance width="600"/>
  <unicode hex="00DD"/>
  <outline>
    <contour>
      <point x="109" y="735" type="line"/>
      <point x="129" y="855" type="line"/>
      <point x="160" y="855" type="line"/>
      <point x="160" y="854" type="line"/>
      <point x="133" y="735" type="line"/>
    </contour>
  </outline>
</glyph>
<glyph name="Thorn" format="2">
  <advance width="244"/>
  <unicode hex="00DE"/>
  <outline>
    <contour>
      <point x="53" y="700" type="line"/>
      <point x="77" y="700" type="line"/>
      <point x="77" y="0" type="line"/>
      <point x="53" y="0" type="line"/>
    </contour>
    <contour>
      <point x="198" y="540" type="line"/>
      <point x="221" y="517" type="line"/>
      <point x="221" y="516" type="line"/>
      <point x="77" y="516" type="line"/>
      <point x="77" y="540" type="line"/>
    </contour>
    <contour>
      <point x="221" y="216" type="line"/>
      <point x="198" y="193" type="line"/>
      <point x="197" y="193" type="line"/>
      <point x="197" y="516" type="line"/>
      <point x="221" y="516" type="line"/>
    </contour>
    <contour>
      <point x="77" y="193" type="line"/>
      <point x="77" y="216" type="line"/>
      <point x="77" y="217" type="line"/>
      <point x="197" y="217" type="line"/>
      <point x="197" y="193" type="line"/>
    </contour>
  </outline>
</glyph>
<glyph name="agrave.color2" format="2">
  <advance width="600"/>
  <unicode hex="00E0"/>
  <outline>
    <contour>
      <point x="147" y="0" type="line"/>
      <point x="124" y="0" type="line"/>
      <point x="123" y="0" type="line"/>
      <point x="123" y="476" type="line"/>
      <point x="147" y="476" type="line"/>
    </contour>
  </outline>
</glyph>
<glyph name="aring" format="2">
  <advance width="197"/>
  <unicode hex="00E5"/>
  <anchor x="102" y="0" name="bottom"/>
  <anchor x="102" y="645" name="top"/>
  <outline>
    <contour>
      <point x="50" y="477" type="line"/>
      <point x="73" y="500" type="line"/>
      <point x="74" y="500" type="line"/>
      <point x="74" y="24" type="line"/>
      <point x="50" y="24" type="line"/>
    </contour>
    <contour>
      <point x="124" y="500" type="line"/>
      <point x="147" y="477" type="line"/>
      <point x="147" y="476" type="line"/>
      <point x="74" y="476" type="line"/>
      <point x="74" y="500" type="line"/>
    </contour>
    <contour>
      <point x="147" y="0" type="line"/>
      <point x="124" y="0" type="line"/>
      <point x="123" y="0" type="line"/>
      <point x="123" y="476" type="line"/>
      <point x="147" y="476" type="line"/>
    </contour>
    <contour>
      <point x="73" y="0" type="line"/>
      <point x="50" y="23" type="line"/>
      <point x="50" y="24" type="line"/>
      <point x="123" y="24" type="line"/>
      <point x="123" y="0" type="line"/>
    </contour>
    <contour>
      <point x="63" y="658" type="line"/>
      <point x="81" y="676" type="line"/>
      <point x="82" y="676" type="line"/>
      <point x="82" y="591" type="line"/>
      <point x="63" y="591" type="line"/>
    </contour>
    <contour>
      <point x="122" y="676" type="line"/>
      <point x="140" y="658" type="line"/>
      <point x="140" y="657" type="line"/>
      <point x="82" y="657" type="line"/>
      <point x="82" y="676" type="line"/>
    </contour>
    <contour>
      <point x="140" y="590" type="line"/>
      <point x="122" y="572" type="line"/>
      <point x="121" y="572" type="line"/>
      <point x="121" y="657" type="line"/>
      <point x="140" y="657" type="line"/>
    </contour>
    <contour>
      <point x="81" y="572" type="line"/>
      <point x="63" y="590" type="line"/>
      <point x="63" y="591" type="line"/>
      <point x="121" y="591" type="line"/>
      <point x="121" y="572" type="line"/>
    </contour>
  </outline>
</glyph>
<glyph name="ccedilla.color4" format="2">
  <advance width="600"/>
  <unicode hex="00E7"/>
  <outline>
    <contour>
      <point x="133" y="-91" type="line"/>
      <point x="113" y="-109" type="line"/>
      <point x="112" y="-109" type="line"/>
      <point x="112" y="-44" type="line"/>
      <point x="133" y="-44" type="line"/>
    </contour>
  </outline>
</glyph>
<glyph name="ecircumflex.color5" format="2">
  <advance width="600"/>
  <unicode hex="00EA"/>
  <outline>
    <contour>
      <point x="158" y="590" type="line"/>
      <point x="134" y="590" type="line"/>
      <point x="90" y="680" type="line"/>
      <point x="113" y="680" type="line"/>
      <point x="114" y="680" type="line"/>
    </contour>
  </outline>
</glyph>
<glyph name="icircumflex" format="2">
  <advance width="130"/>
  <unicode hex="00EE"/>
  <anchor x="65" y="0" name="bottom"/>
  <anchor x="70" y="602" name="top"/>
  <outline>
    <contour>
      <point x="53" y="480" type="line"/>
      <point x="76" y="503" type="line"/>
      <point x="77" y="503" type="line"/>
      <point x="77" y="0" type="line"/>
      <point x="53" y="0" type="line"/>
    </contour>
    <contour>
      <point x="121" y="590" type="line"/>
      <point x="97" y="590" type="line"/>
      <point x="53" y="680" type="line"/>
      <point x="76" y="680" type="line"/>
      <point x="77" y="680" type="line"/>
    </contour>
    <contour>
      <point x="7" y="590" type="line"/>
      <point x="53" y="680" type="line"/>
      <point x="76" y="680" type="line"/>
      <point x="31" y="590" type="line"/>
    </contour>
  </outline>
</glyph>
<glyph name="eth.color2" format="2">
  <advance width="600"/>
  <unicode hex="00F0"/>
  <outline>
    <contour>
      <point x="126" y="500" type="line"/>
      <point x="76" y="730" type="line"/>
      <point x="100" y="730" type="line"/>
      <point x="150" y="477" type="line"/>
      <point x="149" y="477" type="line"/>
    </contour>
  </outline>
</glyph>
<glyph name="ntilde" format="2">
  <advance width="198"/>
  <unicode hex="00F1"/>
  <anchor x="102" y="0" name="bottom"/>
  <anchor x="100" y="500" name="top"/>
  <outline>
    <contour>
      <point x="50" y="477" type="line"/>
      <point x="73" y="500" type="line"/>
      <point x="74" y="500" type="line"/>
      <point x="74" y="0" type="line"/>
      <point x="50" y="0" type="line"/>
    </contour>
    <contour>
      <point x="125" y="500" type="line"/>
      <point x="148" y="477" type="line"/>
      <point x="148" y="476" type="line"/>
      <point x="74" y="476" type="line"/>
      <point x="74" y="500" type="line"/>
    </contour>
    <contour>
      <point x="148" y="20" type="line"/>
      <point x="125" y="-3" type="line"/>
      <point x="124" y="-3" type="line"/>
      <point x="124" y="476" type="line"/>
      <point x="148" y="476" type="line"/>
    </contour>
    <contour>
      <point x="50" y="581" type="line"/>
      <point x="50" y="632" type="line"/>
      <point x="70" y="633" type="line"/>
      <point x="70" y="581" type="line"/>
    </contour>
    <contour>
      <point x="151" y="642" type="line"/>
      <point x="151" y="590" type="line"/>
      <point x="131" y="590" type="line"/>
      <point x="131" y="642" type="line"/>
    </contour>
    <contour>
      <point x="50" y="632" type="line"/>
      <point x="50" y="633" type="line"/>
      <point x="70" y="642" type="line"/>
      <point x="71" y="642" type="line"/>
      <point x="150" y="590" type="line"/>
      <point x="150" y="589" type="line"/>
      <point x="130" y="580" type="line"/>
      <point x="129" y="580" type="line"/>
    </contour>
  </outline>
</glyph>
<glyph name="oacute.color1" format="2">
  <advance width="600"/>
  <unicode hex="00F3"/>
  <outline>
    <contour>
      <point x="125" y="500" type="line"/>
      <point x="148" y="477" type="line"/>
      <point x="148" y="476" type="line"/>
      <point x="74" y="476" type="line"/>
      <point x="74" y="500" type="line"/>
    </contour>
  </outline>
</glyph>
<glyph name="ocircumflex.color5" format="2">
  <advance width="600"/>
  <unicode hex="00F4"/>
  <outline>
    <contour>
      <point x="43" y="590" type="line"/>
      <point x="89" y="680" type="line"/>
      <point x="112" y="680" type="line"/>
      <point x="67" y="590" type="line"/>
    </contour>
  </outline>
</glyph>
<glyph name="ucircumflex.color3" format="2">
  <advance width="600"/>
  <unicode hex="00FB"/>
  <outline>
    <contour>
      <point x="158" y="590" type="line"/>
      <point x="134" y="590" type="line"/>
      <point x="90" y="680" type="line"/>
      <point x="113" y="680" type="line"/>
      <point x="114" y="680" type="line"/>
    </contour>
  </outline>
</glyph>
<glyph name="ydieresis.color1" format="2">
  <advance width="600"/>
  <unicode hex="00FF"/>
  <outline>
    <contour>
      <point x="146" y="-177" type="line"/>
      <point x="124" y="-200" type="line"/>
      <point x="123" y="-200" type="line"/>
      <point x="123" y="500" type="line"/>
      <point x="147" y="500" type="line"/>
    </contour>
  </outline>
</glyph>
<glyph name="abreve.color4" format="2">
  <advance width="600"/>
  <unicode hex="0103"/>
  <outline>
    <contour>
      <point x="88" y="622" type="line"/>
      <point x="62" y="622" type="line"/>
      <point x="33" y="671" type="line"/>
      <point x="33" y="672" type="line"/>
      <point x="59" y="672" type="line"/>
    </contour>
  </outline>
</glyph>
<glyph name="abreve.color5" format="2">
  <advance width="600"/>
  <unicode hex="0103"/>
  <outline>
    <contour>
      <point x="114" y="622" type="line"/>
      <point x="143" y="672" type="line"/>
      <point x="169" y="672" type="line"/>
      <point x="169" y="671" type="line"/>
      <point x="140" y="622" type="line"/>
    </contour>
  </outline>
</glyph>
<glyph name="Aogonek.color4" format="2">
  <advance width="600"/>
  <unicode hex="0104"/>
  <outline>
    <contour>
      <point x="221" y="-80" type="line"/>
      <point x="196" y="-80" type="line"/>
      <point x="196" y="-61" type="line"/>
      <point x="239" y="-61" type="line"/>
      <point x="239" y="-62" type="line"/>
    </contour>
  </outline>
</glyph>
<glyph name="ccaron.color3" format="2">
  <advance width="600"/>
  <unicode hex="010D"/>
  <outline>
    <contour>
      <point x="44" y="680" type="line"/>
      <point x="68" y="680" type="line"/>
      <point x="111" y="602" type="line"/>
      <point x="89" y="590" type="line"/>
      <point x="88" y="590" type="line"/>
    </contour>
  </outline>
</glyph>
<glyph name="dcaron.color4" format="2">
  <advance width="600"/>
  <unicode hex="010F"/>
  <outline>
    <contour>
      <point x="123" y="500" type="line"/>
      <point x="123" y="730" type="line"/>
      <point x="147" y="730" type="line"/>
      <point x="147" y="477" type="line"/>
      <point x="146" y="477" type="line"/>
    </contour>
  </outline>
</glyph>
<glyph name="dcroat.color0" format="2">
  <advance width="600"/>
  <unicode hex="0111"/>
  <outline>
    <contour>
      <point x="184" y="576" type="line"/>
      <point x="23" y="576" type="line"/>
      <point x="23" y="600" type="line"/>
      <point x="184" y="600" type="line"/>
      <point x="184" y="599" type="line"/>
    </contour>
  </outline>
</glyph>
<glyph name="Emacron" format="2">
  <advance width="240"/>
  <unicode hex="0112"/>
  <anchor x="135" y="0" name="bottom"/>
  <anchor x="138" y="700" name="top"/>
  <outline>
    <contour>
      <point x="53" y="700" type="line"/>
      <point x="77" y="700" type="line"/>
      <point x="77" y="24" type="line"/>
      <point x="53" y="24" type="line"/>
    </contour>
    <contour>
      <point x="197" y="676" type="line"/>
      <point x="77" y="676" type="line"/>
      <point x="77" y="700" type="line"/>
      <point x="220" y="700" type="line"/>
      <point x="220" y="699" type="line"/>
    </contour>
    <contour>
      <point x="196" y="353" type="line"/>
      <point x="77" y="353" type="line"/>
      <point x="77" y="377" type="line"/>
      <point x="196" y="377" type="line"/>
    </contour>
    <contour>
      <point x="220" y="0" type="line"/>
      <point x="77" y="0" type="line"/>
      <point x="53" y="23" type="line"/>
      <point x="53" y="24" type="line"/>
      <point x="220" y="24" type="line"/>
    </contour>
    <contour>
      <point x="213" y="801" type="line"/>
      <point x="63" y="801" type="line"/>
      <point x="63" y="825" type="line"/>
      <point x="213" y="825" type="line"/>
    </contour>
  </outline>
</glyph>
<glyph name="Ebreve.color1" format="2">
  <advance width="600"/>
  <unicode hex="0114"/>
  <outline>
    <contour>
      <point x="197" y="676" type="line"/>
      <point x="77" y="676" type="line"/>
      <point x="77" y="700" type="line"/>
      <point x="220" y="700" type="line"/>
      <point x="220" y="699" type="line"/>
    </contour>
  </outline>
</glyph>
<glyph name="Ebreve.color4" format="2">
  <advance width="600"/>
  <unicode hex="0114"/>
  <outline>
    <contour>
      <point x="123" y="803" type="line"/>
      <point x="91" y="803" type="line"/>
      <point x="60" y="839" type="line"/>
      <point x="60" y="840" type="line"/>
      <point x="92" y="840" type="line"/>
    </contour>
  </outline>
</glyph>
<glyph name="ebreve.color6" format="2">
  <advance width="600"/>
  <unicode hex="0115"/>
  <outline>
    <contour>
      <point x="112" y="622" type="line"/>
      <point x="141" y="672" type="line"/>
      <point x="167" y="672" type="line"/>
      <point x="167" y="671" type="line"/>
      <point x="138" y="622" type="line"/>
    </contour>
  </outline>
</glyph>
<glyph name="edotaccent.color5" format="2">
  <advance width="600"/>
  <unicode hex="0117"/>
  <outline>
    <contour>
      <point x="115" y="601" type="line"/>
      <point x="85" y="601" type="line"/>
      <point x="85" y="635" type="line"/>
      <point x="115" y="635" type="line"/>
    </contour>
  </outline>
</glyph>
<glyph name="ecaron" format="2">
  <advance width="197"/>
  <unicode hex="011B"/>
  <anchor x="101" y="0" name="bottom"/>
  <anchor x="100" y="500" name="top"/>
  <outline>
    <contour>
      <point x="50" y="477" type="line"/>
      <point x="73" y="500" type="line"/>
      <point x="74" y="500" type="line"/>
      <point x="74" y="24" type="line"/>
      <point x="50" y="24" type="line"/>
    </contour>
    <contour>
      <point x="124" y="500" type="line"/>
      <point x="147" y="477" type="line"/>
      <point x="147" y="476" type="line"/>
      <point x="74" y="476" type="line"/>
      <point x="74" y="500" type="line"/>
    </contour>
    <contour>
      <point x="73" y="0" type="line"/>
      <point x="50" y="23" type="line"/>
      <point x="50" y="24" type="line"/>
      <point x="147" y="24" type="line"/>
      <point x="147" y="23" type="line"/>
      <point x="124" y="0" type="line"/>
    </contour>
    <contour>
      <point x="123" y="226" type="line"/>
      <point x="123" y="202" type="line"/>
      <point x="74" y="202" type="line"/>
      <point x="74" y="226" type="line"/>
    </contour>
    <contour>
      <point x="147" y="225" type="line"/>
      <point x="124" y="202" type="line"/>
      <point x="123" y="202" type="line"/>
      <point x="123" y="476" type="line"/>
      <point x="147" y="476" type="line"/>
    </contour>
    <contour>
      <point x="44" y="680" type="line"/>
      <point x="68" y="680" type="line"/>
      <point x="111" y="602" type="line"/>
      <point x="89" y="590" type="line"/>
      <point x="88" y="590" type="line"/>
    </contour>
    <contour>
      <point x="158" y="680" type="line"/>
      <point x="112" y="590" type="line"/>
      <point x="89" y="590" type="line"/>
      <point x="134" y="680" type="line"/>
    </contour>
  </outline>
</glyph>
<glyph name="gbreve.color6" format="2">
  <advance width="600"/>
  <unicode hex="011F"/>
  <outline>
    <contour>
      <point x="122" y="622" type="line"/>
      <point x="151" y="672" type="line"/>
      <point x="177" y="672" type="line"/>
      <point x="177" y="671" type="line"/>
      <point x="148" y="622" type="line"/>
    </contour>
  </outline>
</glyph>
<glyph name="Gcommaaccent.color5" format="2">
  <advance width="600"/>
  <unicode hex="0122"/>
  <outline>
    <contour>
      <point x="157" y="-118" type="line"/>
      <point x="134" y="-141" type="line"/>
      <point x="133" y="-141" type="line"/>
      <point x="133" y="-50" type="line"/>
      <point x="157" y="-50" type="line"/>
    </contour>
  </outline>
</glyph>
<glyph name="hcircumflex.color3" format="2">
  <advance width="600"/>
  <unicode hex="0125"/>
  <outline>
    <contour>
      <point x="194" y="560" type="line"/>
      <point x="170" y="560" type="line"/>
      <point x="126" y="650" type="line"/>
      <point x="149" y="650" type="line"/>
      <point x="150" y="650" type="line"/>
      <point x="194" y="561" type="line"/>
    </contour>
  </outline>
</glyph>
<glyph name="Hbar.color1" format="2">
  <advance width="600"/>
  <unicode hex="0126"/>
  <outline>
    <contour>
      <point x="53" y="700" type="line"/>
      <point x="76" y="700" type="line"/>
      <point x="77" y="700" type="line"/>
      <point x="77" y="0" type="line"/>
      <point x="53" y="0" type="line"/>
    </contour>
  </outline>
</glyph>
<glyph name="Hbar.color2" format="2">
  <advance width="600"/>
  <unicode hex="0126"/>
  <outline>
    <contour>
      <point x="240" y="0" type="line"/>
      <point x="217" y="0" type="line"/>
      <point x="216" y="0" type="line"/>
      <point x="216" y="700" type="line"/>
      <point x="240" y="700" type="line"/>
    </contour>
  </outline>
</glyph>
<glyph name="Hbar.color3" format="2">
  <advance width="600"/>
  <unicode hex="0126"/>
  <outline>
    <contour>
      <point x="77" y="353" type="line"/>
      <point x="77" y="376" type="line"/>
      <point x="77" y="377" type="line"/>
      <point x="216" y="377" type="line"/>
      <point x="216" y="353" type="line"/>
    </contour>
  </outline>
</glyph>
<glyph name="hbar" format="2">
  <advance width="200"/>
  <unicode hex="0127"/>
  <anchor x="91" y="573" name="_stroke"/>
  <anchor x="88" y="573" name="stroke"/>
  <anchor x="140" y="500" name="top"/>
  <outline>
    <contour>
      <point x="172" y="561" type="line"/>
      <point x="11" y="561" type="line"/>
      <point x="11" y="585" type="line"/>
      <point x="172" y="585" type="line"/>
      <point x="172" y="584" type="line"/>
    </contour>
    <contour>
      <point x="50" y="730" type="line"/>
      <point x="74" y="730" type="line"/>
      <point x="74" y="1" type="line"/>
      <point x="74" y="0" type="line"/>
      <point x="50" y="0" type="line"/>
    </contour>
    <contour>
      <point x="124" y="500" type="line"/>
      <point x="147" y="477" type="line"/>
      <point x="147" y="476" type="line"/>
      <point x="74" y="476" type="line"/>
      <point x="74" y="500" type="line"/>
    </contour>
    <contour>
      <point x="147" y="20" type="line"/>
      <point x="124" y="-3" type="line"/>
      <point x="123" y="-3" type="line"/>
      <point x="123" y="476" type="line"/>
      <point x="147" y="476" type="line"/>
    </contour>
  </outline>
</glyph>
<glyph name="Ibreve.color4" format="2">
  <advance width="600"/>
  <unicode hex="012C"/>
  <outline>
    <contour>
      <point x="21" y="24" type="line"/>
      <point x="101" y="24" type="line"/>
      <point x="101" y="0" type="line"/>
      <point x="21" y="0" type="line"/>
    </contour>
  </outline>
</glyph>
<glyph name="Ibreve.color7" format="2">
  <advance width="600"/>
  <unicode hex="012C"/>
  <outline>
    <contour>
      <point x="143" y="781" type="line"/>
      <point x="87" y="781" type="line"/>
      <point x="68" y="803" type="line"/>
      <point x="162" y="803" type="line"/>
    </contour>
  </outline>
</glyph>
<glyph name="ibreve.color1" format="2">
  <advance width="600"/>
  <unicode hex="012D"/>
  <outline>
    <contour>
      <point x="55" y="612" type="line"/>
      <point x="32" y="612" type="line"/>
      <point x="10" y="661" type="line"/>
      <point x="10" y="662" type="line"/>
      <point x="36" y="662" type="line"/>
    </contour>
  </outline>
</glyph>
<glyph name="ibreve.color3" format="2">
  <advance width="600"/>
  <unicode hex="012D"/>
  <outline>
    <contour>
      <point x="94" y="590" type="line"/>
      <point x="42" y="590" type="line"/>
      <point x="32" y="612" type="line"/>
      <point x="104" y="612" type="line"/>
    </contour>
  </outline>
</glyph>
<glyph name="iogonek.color2" format="2">
  <advance width="600"/>
  <unicode hex="012F"/>
  <outline>
    <contour>
      <point x="78" y="-80" type="line"/>
      <point x="53" y="-80" type="line"/>
      <point x="53" y="-61" type="line"/>
      <point x="96" y="-61" type="line"/>
      <point x="96" y="-62" type="line"/>
    </contour>
  </outline>
</glyph>
<glyph name="Idotaccent.color5" format="2">
  <advance width="600"/>
  <unicode hex="0130"/>
  <outline>
    <contour>
      <point x="130" y="811" type="line"/>
      <point x="100" y="811" type="line"/>
      <point x="100" y="845" type="line"/>
      <point x="130" y="845" type="line"/>
    </contour>
  </outline>
</glyph>
<glyph name="Kcommaaccent.color2" format="2">
  <advance width="600"/>
  <unicode hex="0136"/>
  <outline>
    <contour>
      <point x="220" y="376" type="line"/>
      <point x="197" y="353" type="line"/>
      <point x="196" y="353" type="line"/>
      <point x="196" y="700" type="line"/>
      <point x="220" y="700" type="line"/>
    </contour>
  </outline>
</glyph>
<glyph name="kcommaaccent.color2" format="2">
  <advance width="600"/>
  <unicode hex="0137"/>
  <outline>
    <contour>
      <point x="171" y="0" type="line"/>
      <point x="148" y="0" type="line"/>
      <point x="147" y="0" type="line"/>
      <point x="147" y="353" type="line"/>
      <point x="171" y="353" type="line"/>
    </contour>
  </outline>
</glyph>
<glyph name="Ldot.color2" format="2">
  <advance width="600"/>
  <unicode hex="013F"/>
  <outline>
    <contour>
      <point x="168" y="329" type="line"/>
      <point x="137" y="329" type="line"/>
      <point x="137" y="353" type="line"/>
      <point x="168" y="353" type="line"/>
    </contour>
  </outline>
</glyph>
<glyph name="Lslash.color0" format="2">
  <advance width="600"/>
  <unicode hex="0141"/>
  <outline>
    <contour>
      <point x="166" y="423" type="line"/>
      <point x="59" y="294" type="line"/>
      <point x="43" y="312" type="line"/>
      <point x="150" y="441" type="line"/>
      <point x="150" y="440" type="line"/>
    </contour>
  </outline>
</glyph>
<glyph name="lslash" format="2">
  <advance width="236"/>
  <unicode hex="0142"/>
  <anchor x="136" y="0" name="bottom"/>
  <anchor x="118" y="730" name="top"/>
  <outline>
    <contour>
      <point x="176" y="423" type="line"/>
      <point x="69" y="294" type="line"/>
      <point x="53" y="312" type="line"/>
      <point x="160" y="441" type="line"/>
      <point x="160" y="440" type="line"/>
    </contour>
    <contour>
      <point x="94" y="730" type="line"/>
      <point x="118" y="730" type="line"/>
      <point x="118" y="0" type="line"/>
      <point x="117" y="0" type="line"/>
      <point x="94" y="23" type="line"/>
    </contour>
    <contour>
      <point x="180" y="0" type="line"/>
      <point x="118" y="0" type="line"/>
      <point x="118" y="24" type="line"/>
      <point x="180" y="24" type="line"/>
      <point x="180" y="23" type="line"/>
    </contour>
  </outline>
</glyph>
<glyph name="Ncaron" format="2">
  <advance width="313"/>
  <unicode hex="0147"/>
  <anchor x="165" y="0" name="bottom"/>
  <anchor x="168" y="700" name="top"/>
  <outline>
    <contour>
      <point x="53" y="0" type="line"/>
      <point x="53" y="679" type="line"/>
      <point x="77" y="655" type="line"/>
      <point x="77" y="0" type="line"/>
    </contour>
    <contour>
      <point x="260" y="700" type="line"/>
      <point x="260" y="22" type="line"/>
      <point x="236" y="46" type="line"/>
      <point x="236" y="700" type="line"/>
    </contour>
    <contour>
      <point x="53" y="679" type="line"/>
      <point x="53" y="680" type="line"/>
      <point x="76" y="703" type="line"/>
      <point x="77" y="703" type="line"/>
      <point x="260" y="22" type="line"/>
      <point x="260" y="21" type="line"/>
      <point x="237" y="-3" type="line"/>
      <point x="236" y="-3" type="line"/>
    </contour>
    <contour>
      <point x="111" y="840" type="line"/>
      <point x="135" y="840" type="line"/>
      <point x="178" y="762" type="line"/>
      <point x="156" y="750" type="line"/>
      <point x="155" y="750" type="line"/>
    </contour>
    <contour>
      <point x="225" y="840" type="line"/>
      <point x="179" y="750" type="line"/>
      <point x="156" y="750" type="line"/>
      <point x="201" y="840" type="line"/>
    </contour>
  </outline>
</glyph>
<glyph name="obreve.color5" format="2">
  <advance width="600"/>
  <unicode hex="014F"/>
  <outline>
    <contour>
      <point x="111" y="622" type="line"/>
      <point x="140" y="672" type="line"/>
      <point x="166" y="672" type="line"/>
      <point x="166" y="671" type="line"/>
      <point x="137" y="622" type="line"/>
    </contour>
  </outline>
</glyph>
<glyph name="ohungarumlaut.color5" format="2">
  <advance width="600"/>
  <unicode hex="0151"/>
  <outline>
    <contour>
      <point x="114" y="570" type="line"/>
      <point x="139" y="700" type="line"/>
      <point x="170" y="700" type="line"/>
      <point x="170" y="699" type="line"/>
      <point x="138" y="570" type="line"/>
    </contour>
  </outline>
</glyph>
<glyph name="Rcaron" format="2">
  <advance width="286"/>
  <unicode hex="0158"/>
  <anchor x="142" y="0" name="bottom"/>
  <anchor x="138" y="700" name="top"/>
  <outline>
    <contour>
      <point x="253" y="0" type="line"/>
      <point x="227" y="0" type="line"/>
      <point x="143" y="353" type="line"/>
      <point x="163" y="373" type="line"/>
    </contour>
    <contour>
      <point x="53" y="700" type="line"/>
      <point x="76" y="700" type="line"/>
      <point x="77" y="700" type="line"/>
      <point x="77" y="0" type="line"/>
      <point x="53" y="0" type="line"/>
    </contour>
    <contour>
      <point x="197" y="700" type="line"/>
      <point x="220" y="677" type="line"/>
      <point x="220" y="676" type="line"/>
      <point x="77" y="676" type="line"/>
      <point x="77" y="700" type="line"/>
    </contour>
    <contour>
      <point x="220" y="376" type="line"/>
      <point x="197" y="353" type="line"/>
      <point x="196" y="353" type="line"/>
      <point x="196" y="676" type="line"/>
      <point x="220" y="676" type="line"/>
    </contour>
    <contour>
      <point x="77" y="353" type="line"/>
      <point x="77" y="376" type="line"/>
      <point x="77" y="377" type="line"/>
      <point x="196" y="377" type="line"/>
      <point x="196" y="353" type="line"/>
    </contour>
    <contour>
      <point x="81" y="840" type="line"/>
      <point x="105" y="840" type="line"/>
      <point x="148" y="762" type="line"/>
      <point x="126" y="750" type="line"/>
      <point x="125" y="750" type="line"/>
    </contour>
    <contour>
      <point x="195" y="840" type="line"/>
      <point x="149" y="750" type="line"/>
      <point x="126" y="750" type="line"/>
      <point x="171" y="840" type="line"/>
    </contour>
  </outline>
</glyph>
<glyph name="rcaron.color3" format="2">
  <advance width="600"/>
  <unicode hex="0159"/>
  <outline>
    <contour>
      <point x="158" y="680" type="line"/>
      <point x="112" y="590" type="line"/>
      <point x="89" y="590" type="line"/>
      <point x="134" y="680" type="line"/>
    </contour>
  </outline>
</glyph>
<glyph name="rcaron" format="2">
  <advance width="157"/>
  <unicode hex="0159"/>
  <anchor x="62" y="0" name="bottom"/>
  <anchor x="100" y="500" name="top"/>
  <outline>
    <contour>
      <point x="50" y="477" type="line"/>
      <point x="73" y="500" type="line"/>
      <point x="74" y="500" type="line"/>
      <point x="74" y="0" type="line"/>
      <point x="50" y="0" type="line"/>
    </contour>
    <contour>
      <point x="124" y="500" type="line"/>
      <point x="147" y="477" type="line"/>
      <point x="147" y="476" type="line"/>
      <point x="74" y="476" type="line"/>
      <point x="74" y="500" type="line"/>
    </contour>
    <contour>
      <point x="44" y="680" type="line"/>
      <point x="68" y="680" type="line"/>
      <point x="111" y="602" type="line"/>
      <point x="89" y="590" type="line"/>
      <point x="88" y="590" type="line"/>
    </contour>
    <contour>
      <point x="158" y="680" type="line"/>
      <point x="112" y="590" type="line"/>
      <point x="89" y="590" type="line"/>
      <point x="134" y="680" type="line"/>
    </contour>
  </outline>
</glyph>
<glyph name="Sacute" format="2">
  <advance width="233"/>
  <unicode hex="015A"/>
  <anchor x="122" y="0" name="bottom"/>
  <anchor x="128" y="700" name="top"/>
  <outline>
    <contour>
      <point x="43" y="677" type="line"/>
      <point x="66" y="700" type="line"/>
      <point x="67" y="700" type="line"/>
      <point x="67" y="377" type="line"/>
      <point x="66" y="377" type="line"/>
      <point x="43" y="377" type="line"/>
    </contour>
    <contour>
      <point x="167" y="700" type="line"/>
      <point x="190" y="677" type="line"/>
      <point x="190" y="676" type="line"/>
      <point x="67" y="676" type="line"/>
      <point x="67" y="700" type="line"/>
    </contour>
    <contour>
      <point x="190" y="24" type="line"/>
      <point x="167" y="0" type="line"/>
      <point x="166" y="0" type="line"/>
      <point x="166" y="377" type="line"/>
      <point x="167" y="377" type="line"/>
      <point x="190" y="353" type="line"/>
    </contour>
    <contour>
      <point x="66" y="353" type="line"/>
      <point x="43" y="376" type="line"/>
      <point x="43" y="377" type="line"/>
      <point x="166" y="377" type="line"/>
      <point x="166" y="354" type="line"/>
      <point x="166" y="353" type="line"/>
    </contour>
    <contour>
      <point x="66" y="0" type="line"/>
      <point x="43" y="23" type="line"/>
      <point x="43" y="24" type="line"/>
      <point x="166" y="24" type="line"/>
      <point x="166" y="23" type="line"/>
      <point x="166" y="0" type="line"/>
    </contour>
    <contour>
      <point x="110" y="735" type="line"/>
      <point x="130" y="855" type="line"/>
      <point x="161" y="855" type="line"/>
      <point x="161" y="854" type="line"/>
      <point x="134" y="735" type="line"/>
    </contour>
  </outline>
</glyph>
<glyph name="Scircumflex.color5" format="2">
  <advance width="600"/>
  <unicode hex="015C"/>
  <outline>
    <contour>
      <point x="182" y="760" type="line"/>
      <point x="158" y="760" type="line"/>
      <point x="114" y="850" type="line"/>
      <point x="137" y="850" type="line"/>
      <point x="138" y="850" type="line"/>
      <point x="182" y="761" type="line"/>
    </contour>
  </outline>
</glyph>
<glyph name="Scedilla.color5" format="2">
  <advance width="600"/>
  <unicode hex="015E"/>
  <outline>
    <contour>
      <point x="100" y="-109" type="line"/>
      <point x="82" y="-91" type="line"/>
      <point x="82" y="-90" type="line"/>
      <point x="132" y="-90" type="line"/>
      <point x="132" y="-109" type="line"/>
    </contour>
  </outline>
</glyph>
<glyph name="Scedilla.color8" format="2">
  <advance width="600"/>
  <unicode hex="015E"/>
  <outline>
    <contour>
      <point x="97" y="-44" type="line"/>
      <point x="97" y="-43" type="line"/>
      <point x="109" y="0" type="line"/>
      <point x="133" y="0" type="line"/>
      <point x="133" y="-1" type="line"/>
      <point x="118" y="-44" type="line"/>
    </contour>
  </outline>
</glyph>
<glyph name="scedilla.color4" format="2">
  <advance width="600"/>
  <unicode hex="015F"/>
  <outline>
    <contour>
      <point x="118" y="-91" type="line"/>
      <point x="98" y="-109" type="line"/>
      <point x="97" y="-109" type="line"/>
      <point x="97" y="-44" type="line"/>
      <point x="118" y="-44" type="line"/>
    </contour>
  </outline>
</glyph>
<glyph name="Scaron.color6" format="2">
  <advance width="600"/>
  <unicode hex="0160"/>
  <outline>
    <contour>
      <point x="185" y="840" type="line"/>
      <point x="139" y="750" type="line"/>
      <point x="116" y="750" type="line"/>
      <point x="161" y="840" type="line"/>
    </contour>
  </outline>
</glyph>
<glyph name="Tcedilla.color3" format="2">
  <advance width="600"/>
  <unicode hex="0162"/>
  <outline>
    <contour>
      <point x="135" y="-109" type="line"/>
      <point x="117" y="-91" type="line"/>
      <point x="117" y="-90" type="line"/>
      <point x="167" y="-90" type="line"/>
      <point x="167" y="-109" type="line"/>
    </contour>
  </outline>
</glyph>
<glyph name="Tcaron.color4" format="2">
  <advance width="600"/>
  <unicode hex="0164"/>
  <outline>
    <contour>
      <point x="215" y="840" type="line"/>
      <point x="169" y="750" type="line"/>
      <point x="146" y="750" type="line"/>
      <point x="191" y="840" type="line"/>
    </contour>
  </outline>
</glyph>
<glyph name="tcaron.color0" format="2">
  <advance width="600"/>
  <unicode hex="0165"/>
  <outline>
    <contour>
      <point x="74" y="500" type="line"/>
      <point x="128" y="500" type="line"/>
      <point x="128" y="476" type="line"/>
      <point x="51" y="476" type="line"/>
    </contour>
  </outline>
</glyph>
<glyph name="tcaron.color3" format="2">
  <advance width="600"/>
  <unicode hex="0165"/>
  <outline>
    <contour>
      <point x="74" y="500" type="line"/>
      <point x="51" y="476" type="line"/>
      <point x="50" y="476" type="line"/>
      <point x="50" y="670" type="line"/>
      <point x="74" y="670" type="line"/>
    </contour>
  </outline>
</glyph>
<glyph name="tcaron" format="2">
  <advance width="167"/>
  <unicode hex="0165"/>
  <anchor x="100" y="0" name="bottom"/>
  <anchor x="94" y="670" name="top"/>
  <outline>
    <contour>
      <point x="74" y="500" type="line"/>
      <point x="128" y="500" type="line"/>
      <point x="128" y="476" type="line"/>
      <point x="51" y="476" type="line"/>
    </contour>
    <contour>
      <point x="50" y="23" type="line"/>
      <point x="50" y="476" type="line"/>
      <point x="74" y="476" type="line"/>
      <point x="74" y="0" type="line"/>
      <point x="73" y="0" type="line"/>
    </contour>
    <contour>
      <point x="144" y="0" type="line"/>
      <point x="74" y="0" type="line"/>
      <point x="74" y="24" type="line"/>
      <point x="167" y="24" type="line"/>
      <point x="167" y="23" type="line"/>
    </contour>
    <contour>
      <point x="74" y="500" type="line"/>
      <point x="51" y="476" type="line"/>
      <point x="50" y="476" type="line"/>
      <point x="50" y="670" type="line"/>
      <point x="74" y="670" type="line"/>
    </contour>
    <contour>
      <point x="126" y="541" type="line"/>
      <point x="124" y="670" type="line"/>
      <point x="124" y="671" type="line"/>
      <point x="152" y="671" type="line"/>
      <point x="147" y="541" type="line"/>
    </contour>
  </outline>
</glyph>
<glyph name="Tbar.color1" format="2">
  <advance width="600"/>
  <unicode hex="0166"/>
  <outline>
    <contour>
      <point x="144" y="676" type="line"/>
      <point x="167" y="700" type="line"/>
      <point x="168" y="700" type="line"/>
      <point x="168" y="0" type="line"/>
      <point x="145" y="0" type="line"/>
      <point x="144" y="0" type="line"/>
    </contour>
  </outline>
</glyph>
<glyph name="tbar.color0" format="2">
  <advance width="600"/>
  <unicode hex="0167"/>
  <outline>
    <contour>
      <point x="173" y="353" type="line"/>
      <point x="12" y="353" type="line"/>
      <point x="12" y="377" type="line"/>
      <point x="173" y="377" type="line"/>
      <point x="173" y="376" type="line"/>
    </contour>
  </outline>
</glyph>
<glyph name="umacron.color2" format="2">
  <advance width="600"/>
  <unicode hex="016B"/>
  <outline>
    <contour>
      <point x="50" y="483" type="line"/>
      <point x="73" y="506" type="line"/>
      <point x="74" y="506" type="line"/>
      <point x="74" y="24" type="line"/>
      <point x="50" y="24" type="line"/>
    </contour>
  </outline>
</glyph>
<glyph name="uring" format="2">
  <advance width="197"/>
  <unicode hex="016F"/>
  <anchor x="102" y="0" name="bottom"/>
  <anchor x="123" y="500" name="horn"/>
  <anchor x="100" y="645" name="top"/>
  <outline>
    <contour>
      <point x="147" y="0" type="line"/>
      <point x="124" y="0" type="line"/>
      <point x="123" y="0" type="line"/>
      <point x="123" y="500" type="line"/>
      <point x="147" y="500" type="line"/>
    </contour>
    <contour>
      <point x="73" y="0" type="line"/>
      <point x="50" y="23" type="line"/>
      <point x="50" y="24" type="line"/>
      <point x="123" y="24" type="line"/>
      <point x="123" y="0" type="line"/>
    </contour>
    <contour>
      <point x="50" y="483" type="line"/>
      <point x="73" y="506" type="line"/>
      <point x="74" y="506" type="line"/>
      <point x="74" y="24" type="line"/>
      <point x="50" y="24" type="line"/>
    </contour>
    <contour>
      <point x="61" y="658" type="line"/>
      <point x="79" y="676" type="line"/>
      <point x="80" y="676" type="line"/>
      <point x="80" y="591" type="line"/>
      <point x="61" y="591" type="line"/>
    </contour>
    <contour>
      <point x="120" y="676" type="line"/>
      <point x="138" y="658" type="line"/>
      <point x="138" y="657" type="line"/>
      <point x="80" y="657" type="line"/>
      <point x="80" y="676" type="line"/>
    </contour>
    <contour>
      <point x="138" y="590" type="line"/>
      <point x="120" y="572" type="line"/>
      <point x="119" y="572" type="line"/>
      <point x="119" y="657" type="line"/>
      <point x="138" y="657" type="line"/>
    </contour>
    <contour>
      <point x="79" y="572" type="line"/>
      <point x="61" y="590" type="line"/>
      <point x="61" y="591" type="line"/>
      <point x="119" y="591" type="line"/>
      <point x="119" y="572" type="line"/>
    </contour>
  </outline>
</glyph>
<glyph name="uhungarumlaut.color3" format="2">
  <advance width="600"/>
  <unicode hex="0171"/>
  <outline>
    <contour>
      <point x="48" y="570" type="line"/>
      <point x="73" y="700" type="line"/>
      <point x="104" y="700" type="line"/>
      <point x="104" y="699" type="line"/>
      <point x="72" y="570" type="line"/>
    </contour>
  </outline>
</glyph>
<glyph name="uogonek.color5" format="2">
  <advance width="600"/>
  <unicode hex="0173"/>
  <outline>
    <contour>
      <point x="69" y="-61" type="line"/>
      <point x="69" y="-34" type="line"/>
      <point x="90" y="-34" type="line"/>
      <point x="90" y="-79" type="line"/>
      <point x="89" y="-79" type="line"/>
    </contour>
  </outline>
</glyph>
<glyph name="uogonek" format="2">
  <advance width="197"/>
  <unicode hex="0173"/>
  <anchor x="102" y="0" name="bottom"/>
  <anchor x="123" y="500" name="horn"/>
  <anchor x="100" y="500" name="top"/>
  <outline>
    <contour>
      <point x="147" y="0" type="line"/>
      <point x="124" y="0" type="line"/>
      <point x="123" y="0" type="line"/>
      <point x="123" y="500" type="line"/>
      <point x="147" y="500" type="line"/>
    </contour>
    <contour>
      <point x="73" y="0" type="line"/>
      <point x="50" y="23" type="line"/>
      <point x="50" y="24" type="line"/>
      <point x="123" y="24" type="line"/>
      <point x="123" y="0" type="line"/>
    </contour>
    <contour>
      <point x="50" y="483" type="line"/>
      <point x="73" y="506" type="line"/>
      <point x="74" y="506" type="line"/>
      <point x="74" y="24" type="line"/>
      <point x="50" y="24" type="line"/>
    </contour>
    <contour>
      <point x="115" y="-80" type="line"/>
      <point x="90" y="-80" type="line"/>
      <point x="90" y="-61" type="line"/>
      <point x="133" y="-61" type="line"/>
      <point x="133" y="-62" type="line"/>
    </contour>
    <contour>
      <point x="69" y="-34" type="line"/>
      <point x="69" y="-33" type="line"/>
      <point x="90" y="0" type="line"/>
      <point x="114" y="0" type="line"/>
      <point x="114" y="-1" type="line"/>
      <point x="90" y="-34" type="line"/>
    </contour>
    <contour>
      <point x="69" y="-61" type="line"/>
      <point x="69" y="-34" type="line"/>
      <point x="90" y="-34" type="line"/>
      <point x="90" y="-79" type="line"/>
      <point x="89" y="-79" type="line"/>
    </contour>
  </outline>
</glyph>
<glyph name="Ycircumflex.color3" format="2">
  <advance width="600"/>
  <unicode hex="0176"/>
  <outline>
    <contour>
      <point x="181" y="760" type="line"/>
      <point x="157" y="760" type="line"/>
      <point x="113" y="850" type="line"/>
      <point x="136" y="850" type="line"/>
      <point x="137" y="850" type="line"/>
      <point x="181" y="761" type="line"/>
    </contour>
  </outline>
</glyph>
<glyph name="ycircumflex.color2" format="2">
  <advance width="600"/>
  <unicode hex="0177"/>
  <outline>
    <contour>
      <point x="56" y="477" type="line"/>
      <point x="79" y="503" type="line"/>
      <point x="80" y="503" type="line"/>
      <point x="80" y="24" type="line"/>
      <point x="56" y="24" type="line"/>
    </contour>
  </outline>
</glyph>
<glyph name="ycircumflex.color5" format="2">
  <advance width="600"/>
  <unicode hex="0177"/>
  <outline>
    <contour>
      <point x="50" y="590" type="line"/>
      <point x="96" y="680" type="line"/>
      <point x="119" y="680" type="line"/>
      <point x="74" y="590" type="line"/>
    </contour>
  </outline>
</glyph>
<glyph name="zacute.color3" format="2">
  <advance width="600"/>
  <unicode hex="017A"/>
  <outline>
    <contour>
      <point x="67" y="570" type="line"/>
      <point x="92" y="700" type="line"/>
      <point x="123" y="700" type="line"/>
      <point x="123" y="699" type="line"/>
      <point x="91" y="570" type="line"/>
    </contour>
  </outline>
</glyph>
<glyph name="Zcaron.color1" format="2">
  <advance width="600"/>
  <unicode hex="017D"/>
  <outline>
    <contour>
      <point x="56" y="24" type="line"/>
      <point x="33" y="24" type="line"/>
      <point x="33" y="25" type="line"/>
      <point x="166" y="700" type="line"/>
      <point x="189" y="667" type="line"/>
    </contour>
  </outline>
</glyph>
<glyph name="Zcaron.color2" format="2">
  <advance width="600"/>
  <unicode hex="017D"/>
  <outline>
    <contour>
      <point x="189" y="0" type="line"/>
      <point x="56" y="0" type="line"/>
      <point x="33" y="24" type="line"/>
      <point x="189" y="24" type="line"/>
      <point x="189" y="23" type="line"/>
    </contour>
  </outline>
</glyph>
<glyph name="zcaron.color3" format="2">
  <advance width="600"/>
  <unicode hex="017E"/>
  <outline>
    <contour>
      <point x="27" y="680" type="line"/>
      <point x="51" y="680" type="line"/>
      <point x="94" y="602" type="line"/>
      <point x="72" y="590" type="line"/>
      <point x="71" y="590" type="line"/>
    </contour>
  </outline>
</glyph>
<glyph name="Schwa.color0" format="2">
  <advance width="600"/>
  <unicode hex="018F"/>
  <outline>
    <contour>
      <point x="200" y="24" type="line"/>
      <point x="177" y="0" type="line"/>
      <point x="176" y="0" type="line"/>
      <point x="176" y="676" type="line"/>
      <point x="200" y="676" type="line"/>
    </contour>
  </outline>
</glyph>
<glyph name="Schwa.color1" format="2">
  <advance width="600"/>
  <unicode hex="018F"/>
  <outline>
    <contour>
      <point x="56" y="0" type="line"/>
      <point x="33" y="23" type="line"/>
      <point x="33" y="24" type="line"/>
      <point x="176" y="24" type="line"/>
      <point x="176" y="0" type="line"/>
    </contour>
  </outline>
</glyph>
<glyph name="Schwa.color2" format="2">
  <advance width="600"/>
  <unicode hex="018F"/>
  <outline>
    <contour>
      <point x="57" y="347" type="line"/>
      <point x="176" y="347" type="line"/>
      <point x="176" y="323" type="line"/>
      <point x="57" y="323" type="line"/>
    </contour>
  </outline>
</glyph>
<glyph name="Ohorn.color5" format="2">
  <advance width="600"/>
  <unicode hex="01A0"/>
  <outline>
    <contour>
      <point x="252" y="699" type="line"/>
      <point x="229" y="676" type="line"/>
      <point x="228" y="676" type="line"/>
      <point x="228" y="767" type="line"/>
      <point x="252" y="767" type="line"/>
    </contour>
  </outline>
</glyph>
<glyph name="Uhorn.color4" format="2">
  <advance width="600"/>
  <unicode hex="01AF"/>
  <outline>
    <contour>
      <point x="251" y="699" type="line"/>
      <point x="228" y="676" type="line"/>
      <point x="227" y="676" type="line"/>
      <point x="227" y="767" type="line"/>
      <point x="251" y="767" type="line"/>
    </contour>
  </outline>
</glyph>
<glyph name="uhorn" format="2">
  <advance width="197"/>
  <unicode hex="01B0"/>
  <anchor x="102" y="0" name="bottom"/>
  <anchor x="123" y="500" name="horn"/>
  <anchor x="100" y="500" name="top"/>
  <outline>
    <contour>
      <point x="147" y="0" type="line"/>
      <point x="124" y="0" type="line"/>
      <point x="123" y="0" type="line"/>
      <point x="123" y="500" type="line"/>
      <point x="147" y="500" type="line"/>
    </contour>
    <contour>
      <point x="73" y="0" type="line"/>
      <point x="50" y="23" type="line"/>
      <point x="50" y="24" type="line"/>
      <point x="123" y="24" type="line"/>
      <point x="123" y="0" type="line"/>
    </contour>
    <contour>
      <point x="50" y="483" type="line"/>
      <point x="73" y="506" type="line"/>
      <point x="74" y="506" type="line"/>
      <point x="74" y="24" type="line"/>
      <point x="50" y="24" type="line"/>
    </contour>
    <contour>
      <point x="123" y="500" type="line"/>
      <point x="154" y="500" type="line"/>
      <point x="154" y="476" type="line"/>
      <point x="146" y="476" type="line"/>
    </contour>
    <contour>
      <point x="178" y="499" type="line"/>
      <point x="155" y="476" type="line"/>
      <point x="154" y="476" type="line"/>
      <point x="154" y="567" type="line"/>
      <point x="178" y="567" type="line"/>
    </contour>
  </outline>
</glyph>
<glyph name="DZcaron.color6" format="2">
  <advance width="600"/>
  <unicode hex="01C4"/>
  <outline>
    <contour>
      <point x="432" y="0" type="line"/>
      <point x="299" y="0" type="line"/>
      <point x="276" y="24" type="line"/>
      <point x="432" y="24" type="line"/>
      <point x="432" y="23" type="line"/>
    </contour>
  </outline>
</glyph>
<glyph name="DZcaron.color7" format="2">
  <advance width="600"/>
  <unicode hex="01C4"/>
  <outline>
    <contour>
      <point x="304" y="840" type="line"/>
      <point x="328" y="840" type="line"/>
      <point x="371" y="762" type="line"/>
      <point x="349" y="750" type="line"/>
      <point x="348" y="750" type="line"/>
    </contour>
  </outline>
</glyph>
<glyph name="dzcaron.color8" format="2">
  <advance width="600"/>
  <unicode hex="01C6"/>
  <outline>
    <contour>
      <point x="180" y="680" type="line"/>
      <point x="204" y="680" type="line"/>
      <point x="247" y="602" type="line"/>
      <point x="225" y="590" type="line"/>
      <point x="224" y="590" type="line"/>
    </contour>
  </outline>
</glyph>
<glyph name="Lj.color2" format="2">
  <advance width="600"/>
  <unicode hex="01C8"/>
  <outline>
    <contour>
      <point x="329" y="480" type="line"/>
      <point x="352" y="503" type="line"/>
      <point x="353" y="503" type="line"/>
      <point x="353" y="-177" type="line"/>
      <point x="330" y="-200" type="line"/>
      <point x="329" y="-200" type="line"/>
    </contour>
  </outline>
</glyph>
<glyph name="Lj.color3" format="2">
  <advance width="600"/>
  <unicode hex="01C8"/>
  <outline>
    <contour>
      <point x="353" y="565" type="line"/>
      <point x="330" y="542" type="line"/>
      <point x="329" y="542" type="line"/>
      <point x="329" y="615" type="line"/>
      <point x="353" y="615" type="line"/>
    </contour>
  </outline>
</glyph>
<glyph name="Lj.color4" format="2">
  <advance width="600"/>
  <unicode hex="01C8"/>
  <outline>
    <contour>
      <point x="329" y="-200" type="line"/>
      <point x="267" y="-200" type="line"/>
      <point x="267" y="-176" type="line"/>
      <point x="329" y="-176" type="line"/>
      <point x="329" y="-177" type="line"/>
    </contour>
  </outline>
</glyph>
<glyph name="lj.color3" format="2">
  <advance width="600"/>
  <unicode hex="01C9"/>
  <outline>
    <contour>
      <point x="216" y="565" type="line"/>
      <point x="193" y="542" type="line"/>
      <point x="192" y="542" type="line"/>
      <point x="192" y="615" type="line"/>
      <point x="216" y="615" type="line"/>
    </contour>
  </outline>
</glyph>
<glyph name="NJ.color3" format="2">
  <advance width="600"/>
  <unicode hex="01CA"/>
  <outline>
    <contour>
      <point x="423" y="24" type="line"/>
      <point x="423" y="676" type="line"/>
      <point x="446" y="700" type="line"/>
      <point x="447" y="700" type="line"/>
      <point x="447" y="24" type="line"/>
    </contour>
  </outline>
</glyph>
<glyph name="nj.color2" format="2">
  <advance width="600"/>
  <unicode hex="01CC"/>
  <outline>
    <contour>
      <point x="148" y="20" type="line"/>
      <point x="125" y="-3" type="line"/>
      <point x="124" y="-3" type="line"/>
      <point x="124" y="476" type="line"/>
      <point x="148" y="476" type="line"/>
    </contour>
  </outline>
</glyph>
<glyph name="Gcaron.color3" format="2">
  <advance width="600"/>
  <unicode hex="01E6"/>
  <outline>
    <contour>
      <point x="123" y="353" type="line"/>
      <point x="123" y="376" type="line"/>
      <point x="123" y="377" type="line"/>
      <point x="196" y="377" type="line"/>
      <point x="196" y="354" type="line"/>
      <point x="196" y="353" type="line"/>
    </contour>
  </outline>
</glyph>
<glyph name="Gcaron.color6" format="2">
  <advance width="600"/>
  <unicode hex="01E6"/>
  <outline>
    <contour>
      <point x="195" y="840" type="line"/>
      <point x="149" y="750" type="line"/>
      <point x="126" y="750" type="line"/>
      <point x="171" y="840" type="line"/>
    </contour>
  </outline>
</glyph>
<glyph name="gcaron.color6" format="2">
  <advance width="600"/>
  <unicode hex="01E7"/>
  <outline>
    <contour>
      <point x="168" y="680" type="line"/>
      <point x="122" y="590" type="line"/>
      <point x="99" y="590" type="line"/>
      <point x="144" y="680" type="line"/>
    </contour>
  </outline>
</glyph>
<glyph name="Oogonek.color4" format="2">
  <advance width="600"/>
  <unicode hex="01EA"/>
  <outline>
    <contour>
      <point x="155" y="-80" type="line"/>
      <point x="130" y="-80" type="line"/>
      <point x="130" y="-61" type="line"/>
      <point x="173" y="-61" type="line"/>
      <point x="173" y="-62" type="line"/>
    </contour>
  </outline>
</glyph>
<glyph name="AEacute" format="2">
  <advance width="372"/>
  <unicode hex="01FC"/>
  <anchor x="138" y="700" name="top"/>
  <outline>
    <contour>
      <point x="196" y="353" type="line"/>
      <point x="77" y="353" type="line"/>
      <point x="77" y="377" type="line"/>
      <point x="196" y="377" type="line"/>
    </contour>
    <contour>
      <point x="77" y="0" type="line"/>
      <point x="53" y="0" type="line"/>
      <point x="53" y="677" type="line"/>
      <point x="76" y="700" type="line"/>
      <point x="77" y="700" type="line"/>
    </contour>
    <contour>
      <point x="363" y="700" type="line"/>
      <point x="363" y="699" type="line"/>
      <point x="340" y="676" type="line"/>
      <point x="220" y="676" type="line"/>
      <point x="197" y="700" type="line"/>
    </contour>
    <contour>
      <point x="339" y="353" type="line"/>
      <point x="220" y="353" type="line"/>
      <point x="220" y="377" type="line"/>
      <point x="339" y="377" type="line"/>
    </contour>
    <contour>
      <point x="363" y="24" type="line"/>
      <point x="363" y="0" type="line"/>
      <point x="220" y="0" type="line"/>
      <point x="196" y="23" type="line"/>
      <point x="196" y="24" type="line"/>
    </contour>
    <contour>
      <point x="220" y="24" type="line"/>
      <point x="196" y="24" type="line"/>
      <point x="196" y="676" type="line"/>
      <point x="220" y="676" type="line"/>
    </contour>
    <contour>
      <point x="197" y="700" type="line"/>
      <point x="220" y="677" type="line"/>
      <point x="220" y="676" type="line"/>
      <point x="77" y="676" type="line"/>
      <point x="77" y="700" type="line"/>
    </contour>
    <contour>
      <point x="120" y="735" type="line"/>
      <point x="140" y="855" type="line"/>
      <point x="171" y="855" type="line"/>
      <point x="171" y="854" type="line"/>
      <point x="144" y="735" type="line"/>
    </contour>
  </outline>
</glyph>
<glyph name="oslashacute.color5" format="2">
  <advance width="600"/>
  <unicode hex="01FF"/>
  <outline>
    <contour>
      <point x="83" y="570" type="line"/>
      <point x="108" y="700" type="line"/>
      <point x="139" y="700" type="line"/>
      <point x="139" y="699" type="line"/>
      <point x="107" y="570" type="line"/>
    </contour>
  </outline>
</glyph>
<glyph name="ainvertedbreve.color4" format="2">
  <advance width="600"/>
  <unicode hex="0203"/>
  <outline>
    <contour>
      <point x="118" y="648" type="line"/>
      <point x="144" y="648" type="line"/>
      <point x="173" y="599" type="line"/>
      <point x="173" y="598" type="line"/>
      <point x="147" y="598" type="line"/>
    </contour>
  </outline>
</glyph>
<glyph name="Edblgrave.color4" format="2">
  <advance width="600"/>
  <unicode hex="0204"/>
  <outline>
    <contour>
      <point x="179" y="770" type="line"/>
      <point x="155" y="770" type="line"/>
      <point x="123" y="859" type="line"/>
      <point x="123" y="860" type="line"/>
      <point x="154" y="860" type="line"/>
    </contour>
  </outline>
</glyph>
<glyph name="edblgrave.color5" format="2">
  <advance width="600"/>
  <unicode hex="0205"/>
  <outline>
    <contour>
      <point x="140" y="570" type="line"/>
      <point x="116" y="570" type="line"/>
      <point x="84" y="699" type="line"/>
      <point x="84" y="700" type="line"/>
      <point x="115" y="700" type="line"/>
    </contour>
  </outline>
</glyph>
<glyph name="Iinvertedbreve.color5" format="2">
  <advance width="600"/>
  <unicode hex="020A"/>
  <outline>
    <contour>
      <point x="100" y="818" type="line"/>
      <point x="69" y="781" type="line"/>
      <point x="37" y="781" type="line"/>
      <point x="37" y="782" type="line"/>
      <point x="68" y="818" type="line"/>
    </contour>
  </outline>
</glyph>
<glyph name="odblgrave.color2" format="2">
  <advance width="600"/>
  <unicode hex="020D"/>
  <outline>
    <contour>
      <point x="148" y="23" type="line"/>
      <point x="125" y="0" type="line"/>
      <point x="124" y="0" type="line"/>
      <point x="124" y="476" type="line"/>
      <point x="148" y="476" type="line"/>
    </contour>
  </outline>
</glyph>
<glyph name="odblgrave.color4" format="2">
  <advance width="600"/>
  <unicode hex="020D"/>
  <outline>
    <contour>
      <point x="139" y="570" type="line"/>
      <point x="115" y="570" type="line"/>
      <point x="83" y="699" type="line"/>
      <point x="83" y="700" type="line"/>
      <point x="114" y="700" type="line"/>
    </contour>
  </outline>
</glyph>
<glyph name="odblgrave" format="2">
  <advance width="198"/>
  <unicode hex="020D"/>
  <anchor x="99" y="0" name="bottom"/>
  <anchor x="124" y="500" name="horn"/>
  <anchor x="99" y="500" name="top"/>
  <outline>
    <contour>
      <point x="50" y="477" type="line"/>
      <point x="73" y="500" type="line"/>
      <point x="74" y="500" type="line"/>
      <point x="74" y="24" type="line"/>
      <point x="50" y="24" type="line"/>
    </contour>
    <contour>
      <point x="125" y="500" type="line"/>
      <point x="148" y="477" type="line"/>
      <point x="148" y="476" type="line"/>
      <point x="74" y="476" type="line"/>
      <point x="74" y="500" type="line"/>
    </contour>
    <contour>
      <point x="148" y="23" type="line"/>
      <point x="125" y="0" type="line"/>
      <point x="124" y="0" type="line"/>
      <point x="124" y="476" type="line"/>
      <point x="148" y="476" type="line"/>
    </contour>
    <contour>
      <point x="73" y="0" type="line"/>
      <point x="50" y="23" type="line"/>
      <point x="50" y="24" type="line"/>
      <point x="124" y="24" type="line"/>
      <point x="124" y="0" type="line"/>
    </contour>
    <contour>
      <point x="139" y="570" type="line"/>
      <point x="115" y="570" type="line"/>
      <point x="83" y="699" type="line"/>
      <point x="83" y="700" type="line"/>
      <point x="114" y="700" type="line"/>
    </contour>
    <contour>
      <point x="87" y="570" type="line"/>
      <point x="63" y="570" type="line"/>
      <point x="31" y="699" type="line"/>
      <point x="31" y="700" type="line"/>
      <point x="62" y="700" type="line"/>
    </contour>
  </outline>
</glyph>
<glyph name="oinvertedbreve.color0" format="2">
  <advance width="600"/>
  <unicode hex="020F"/>
  <outline>
    <contour>
      <point x="50" y="477" type="line"/>
      <point x="73" y="500" type="line"/>
      <point x="74" y="500" type="line"/>
      <point x="74" y="24" type="line"/>
      <point x="50" y="24" type="line"/>
    </contour>
  </outline>
</glyph>
<glyph name="Rinvertedbreve" format="2">
  <advance width="286"/>
  <unicode hex="0212"/>
  <anchor x="142" y="0" name="bottom"/>
  <anchor x="138" y="700" name="top"/>
  <outline>
    <contour>
      <point x="253" y="0" type="line"/>
      <point x="227" y="0" type="line"/>
      <point x="143" y="353" type="line"/>
      <point x="163" y="373" type="line"/>
    </contour>
    <contour>
      <point x="53" y="700" type="line"/>
      <point x="76" y="700" type="line"/>
      <point x="77" y="700" type="line"/>
      <point x="77" y="0" type="line"/>
      <point x="53" y="0" type="line"/>
    </contour>
    <contour>
      <point x="197" y="700" type="line"/>
      <point x="220" y="677" type="line"/>
      <point x="220" y="676" type="line"/>
      <point x="77" y="676" type="line"/>
      <point x="77" y="700" type="line"/>
    </contour>
    <contour>
      <point x="220" y="376" type="line"/>
      <point x="197" y="353" type="line"/>
      <point x="196" y="353" type="line"/>
      <point x="196" y="676" type="line"/>
      <point x="220" y="676" type="line"/>
    </contour>
    <contour>
      <point x="77" y="353" type="line"/>
      <point x="77" y="376" type="line"/>
      <point x="77" y="377" type="line"/>
      <point x="196" y="377" type="line"/>
      <point x="196" y="353" type="line"/>
    </contour>
    <contour>
      <point x="123" y="818" type="line"/>
      <point x="92" y="781" type="line"/>
      <point x="60" y="781" type="line"/>
      <point x="60" y="782" type="line"/>
      <point x="91" y="818" type="line"/>
    </contour>
    <contour>
      <point x="153" y="818" type="line"/>
      <point x="185" y="818" type="line"/>
      <point x="216" y="782" type="line"/>
      <point x="216" y="781" type="line"/>
      <point x="184" y="781" type="line"/>
    </contour>
    <contour>
      <point x="166" y="840" type="line"/>
      <point x="185" y="818" type="line"/>
      <point x="91" y="818" type="line"/>
      <point x="110" y="840" type="line"/>
    </contour>
  </outline>
</glyph>
<glyph name="rinvertedbreve" format="2">
  <advance width="157"/>
  <unicode hex="0213"/>
  <anchor x="62" y="0" name="bottom"/>
  <anchor x="100" y="500" name="top"/>
  <outline>
    <contour>
      <point x="50" y="477" type="line"/>
      <point x="73" y="500" type="line"/>
      <point x="74" y="500" type="line"/>
      <point x="74" y="0" type="line"/>
      <point x="50" y="0" type="line"/>
    </contour>
    <contour>
      <point x="124" y="500" type="line"/>
      <point x="147" y="477" type="line"/>
      <point x="147" y="476" type="line"/>
      <point x="74" y="476" type="line"/>
      <point x="74" y="500" type="line"/>
    </contour>
    <contour>
      <point x="116" y="648" type="line"/>
      <point x="142" y="648" type="line"/>
      <point x="171" y="599" type="line"/>
      <point x="171" y="598" type="line"/>
      <point x="145" y="598" type="line"/>
    </contour>
    <contour>
      <point x="90" y="648" type="line"/>
      <point x="61" y="598" type="line"/>
      <point x="35" y="598" type="line"/>
      <point x="35" y="599" type="line"/>
      <point x="64" y="648" type="line"/>
    </contour>
    <contour>
      <point x="129" y="670" type="line"/>
      <point x="142" y="648" type="line"/>
      <point x="64" y="648" type="line"/>
      <point x="77" y="670" type="line"/>
    </contour>
  </outline>
</glyph>
<glyph name="udblgrave" format="2">
  <advance width="197"/>
  <unicode hex="0215"/>
  <anchor x="102" y="0" name="bottom"/>
  <anchor x="123" y="500" name="horn"/>
  <anchor x="100" y="500" name="top"/>
  <outline>
    <contour>
      <point x="147" y="0" type="line"/>
      <point x="124" y="0" type="line"/>
      <point x="123" y="0" type="line"/>
      <point x="123" y="500" type="line"/>
      <point x="147" y="500" type="line"/>
    </contour>
    <contour>
      <point x="73" y="0" type="line"/>
      <point x="50" y="23" type="line"/>
      <point x="50" y="24" type="line"/>
      <point x="123" y="24" type="line"/>
      <point x="123" y="0" type="line"/>
    </contour>
    <contour>
      <point x="50" y="483" type="line"/>
      <point x="73" y="506" type="line"/>
      <point x="74" y="506" type="line"/>
      <point x="74" y="24" type="line"/>
      <point x="50" y="24" type="line"/>
    </contour>
    <contour>
      <point x="140" y="570" type="line"/>
      <point x="116" y="570" type="line"/>
      <point x="84" y="699" type="line"/>
      <point x="84" y="700" type="line"/>
      <point x="115" y="700" type="line"/>
    </contour>
    <contour>
      <point x="88" y="570" type="line"/>
      <point x="64" y="570" type="line"/>
      <point x="32" y="699" type="line"/>
      <point x="32" y="700" type="line"/>
      <point x="63" y="700" type="line"/>
    </contour>
  </outline>
</glyph>
<glyph name="Scommaaccent.color5" format="2">
  <advance width="600"/>
  <unicode hex="0218"/>
  <outline>
    <contour>
      <point x="133" y="-118" type="line"/>
      <point x="110" y="-141" type="line"/>
      <point x="109" y="-141" type="line"/>
      <point x="109" y="-50" type="line"/>
      <point x="133" y="-50" type="line"/>
    </contour>
  </outline>
</glyph>
<glyph name="Tcommaaccent.color3" format="2">
  <advance width="600"/>
  <unicode hex="021A"/>
  <outline>
    <contour>
      <point x="168" y="-118" type="line"/>
      <point x="145" y="-141" type="line"/>
      <point x="144" y="-141" type="line"/>
      <point x="144" y="-50" type="line"/>
      <point x="168" y="-50" type="line"/>
    </contour>
  </outline>
</glyph>
<glyph name="Tcommaaccent" format="2">
  <advance width="311"/>
  <unicode hex="021A"/>
  <anchor x="157" y="0" name="bottom"/>
  <anchor x="156" y="365" name="stroke"/>
  <anchor x="158" y="700" name="top"/>
  <outline>
    <contour>
      <point x="144" y="676" type="line"/>
      <point x="167" y="700" type="line"/>
      <point x="168" y="700" type="line"/>
      <point x="168" y="0" type="line"/>
      <point x="145" y="0" type="line"/>
      <point x="144" y="0" type="line"/>
    </contour>
    <contour>
      <point x="144" y="676" type="line"/>
      <point x="23" y="676" type="line"/>
      <point x="23" y="700" type="line"/>
      <point x="167" y="700" type="line"/>
    </contour>
    <contour>
      <point x="288" y="676" type="line"/>
      <point x="168" y="676" type="line"/>
      <point x="168" y="700" type="line"/>
      <point x="288" y="700" type="line"/>
    </contour>
    <contour>
      <point x="168" y="-118" type="line"/>
      <point x="145" y="-141" type="line"/>
      <point x="144" y="-141" type="line"/>
      <point x="144" y="-50" type="line"/>
      <point x="168" y="-50" type="line"/>
    </contour>
  </outline>
</glyph>
<glyph name="odieresismacron.color6" format="2">
  <advance width="600"/>
  <unicode hex="022B"/>
  <outline>
    <contour>
      <point x="154" y="548" type="line"/>
      <point x="44" y="548" type="line"/>
      <point x="44" y="572" type="line"/>
      <point x="154" y="572" type="line"/>
    </contour>
  </outline>
</glyph>
<glyph name="Otildemacron.color7" format="2">
  <advance width="600"/>
  <unicode hex="022C"/>
  <outline>
    <contour>
      <point x="209" y="848" type="line"/>
      <point x="59" y="848" type="line"/>
      <point x="59" y="872" type="line"/>
      <point x="209" y="872" type="line"/>
    </contour>
  </outline>
</glyph>
<glyph name="Odotaccentmacron.color4" format="2">
  <advance width="600"/>
  <unicode hex="0230"/>
  <outline>
    <contour>
      <point x="153" y="811" type="line"/>
      <point x="123" y="811" type="line"/>
      <point x="123" y="845" type="line"/>
      <point x="153" y="845" type="line"/>
    </contour>
  </outline>
</glyph>
<glyph name="Odotaccentmacron" format="2">
  <advance width="273"/>
  <unicode hex="0230"/>
  <anchor x="142" y="0" name="bottom"/>
  <anchor x="197" y="700" name="horn"/>
  <anchor x="138" y="700" name="top"/>
  <outline>
    <contour>
      <point x="53" y="677" type="line"/>
      <point x="76" y="700" type="line"/>
      <point x="77" y="700" type="line"/>
      <point x="77" y="24" type="line"/>
      <point x="53" y="24" type="line"/>
    </contour>
    <contour>
      <point x="197" y="700" type="line"/>
      <point x="220" y="677" type="line"/>
      <point x="220" y="676" type="line"/>
      <point x="77" y="676" type="line"/>
      <point x="77" y="700" type="line"/>
    </contour>
    <contour>
      <point x="220" y="23" type="line"/>
      <point x="197" y="0" type="line"/>
      <point x="196" y="0" type="line"/>
      <point x="196" y="676" type="line"/>
      <point x="220" y="676" type="line"/>
    </contour>
    <contour>
      <point x="76" y="0" type="line"/>
      <point x="53" y="23" type="line"/>
      <point x="53" y="24" type="line"/>
      <point x="196" y="24" type="line"/>
      <point x="196" y="0" type="line"/>
    </contour>
    <contour>
      <point x="153" y="811" type="line"/>
      <point x="123" y="811" type="line"/>
      <point x="123" y="845" type="line"/>
      <point x="153" y="845" type="line"/>
    </contour>
    <contour>
      <point x="213" y="801" type="line"/>
      <point x="63" y="801" type="line"/>
      <point x="63" y="825" type="line"/>
      <point x="213" y="825" type="line"/>
    </contour>
  </outline>
</glyph>
<glyph name="odotaccentmacron" format="2">
  <advance width="198"/>
  <unicode hex="0231"/>
  <anchor x="99" y="0" name="bottom"/>
  <anchor x="124" y="500" name="horn"/>
  <anchor x="99" y="500" name="top"/>
  <outline>
    <contour>
      <point x="50" y="477" type="line"/>
      <point x="73" y="500" type="line"/>
      <point x="74" y="500" type="line"/>
      <point x="74" y="24" type="line"/>
      <point x="50" y="24" type="line"/>
    </contour>
    <contour>
      <point x="125" y="500" type="line"/>
      <point x="148" y="477" type="line"/>
      <point x="148" y="476" type="line"/>
      <point x="74" y="476" type="line"/>
      <point x="74" y="500" type="line"/>
    </contour>
    <contour>
      <point x="148" y="23" type="line"/>
      <point x="125" y="0" type="line"/>
      <point x="124" y="0" type="line"/>
      <point x="124" y="476" type="line"/>
      <point x="148" y="476" type="line"/>
    </contour>
    <contour>
      <point x="73" y="0" type="line"/>
      <point x="50" y="23" type="line"/>
      <point x="50" y="24" type="line"/>
      <point x="124" y="24" type="line"/>
      <point x="124" y="0" type="line"/>
    </contour>
    <contour>
      <point x="114" y="619" type="line"/>
      <point x="84" y="619" type="line"/>
      <point x="84" y="653" type="line"/>
      <point x="114" y="653" type="line"/>
    </contour>
    <contour>
      <point x="154" y="555" type="line"/>
      <point x="44" y="555" type="line"/>
      <point x="44" y="579" type="line"/>
      <point x="154" y="579" type="line"/>
    </contour>
  </outline>
</glyph>
<glyph name="Ymacron.color3" format="2">
  <advance width="600"/>
  <unicode hex="0232"/>
  <outline>
    <contour>
      <point x="202" y="801" type="line"/>
      <point x="52" y="801" type="line"/>
      <point x="52" y="825" type="line"/>
      <point x="202" y="825" type="line"/>
    </contour>
  </outline>
</glyph>
<glyph name="ymacron.color0" format="2">
  <advance width="600"/>
  <unicode hex="0233"/>
  <outline>
    <contour>
      <point x="78" y="0" type="line"/>
      <point x="55" y="23" type="line"/>
      <point x="55" y="24" type="line"/>
      <point x="128" y="24" type="line"/>
      <point x="128" y="0" type="line"/>
    </contour>
  </outline>
</glyph>
<glyph name="jdotless" format="2">
  <advance width="127"/>
  <unicode hex="0237"/>
  <anchor x="60" y="500" name="top"/>
  <outline>
    <contour>
      <point x="50" y="480" type="line"/>
      <point x="73" y="503" type="line"/>
      <point x="74" y="503" type="line"/>
      <point x="74" y="-177" type="line"/>
      <point x="51" y="-200" type="line"/>
      <point x="50" y="-200" type="line"/>
    </contour>
    <contour>
      <point x="50" y="-200" type="line"/>
      <point x="-12" y="-200" type="line"/>
      <point x="-12" y="-176" type="line"/>
      <point x="50" y="-176" type="line"/>
      <point x="50" y="-177" type="line"/>
    </contour>
  </outline>
</glyph>
<glyph name="apostrophemod.color1" format="2">
  <advance width="600"/>
  <unicode hex="02BC"/>
  <outline>
    <contour>
      <point x="64" y="685" type="line"/>
      <point x="41" y="662" type="line"/>
      <point x="40" y="662" type="line"/>
      <point x="40" y="753" type="line"/>
      <point x="64" y="753" type="line"/>
    </contour>
  </outline>
</glyph>
<glyph name="caron.color0" format="2">
  <advance width="600"/>
  <unicode hex="02C7"/>
  <outline>
    <contour>
      <point x="253" y="680" type="line"/>
      <point x="277" y="680" type="line"/>
      <point x="320" y="602" type="line"/>
      <point x="298" y="590" type="line"/>
      <point x="297" y="590" type="line"/>
    </contour>
  </outline>
</glyph>
<glyph name="caron.color1" format="2">
  <advance width="600"/>
  <unicode hex="02C7"/>
  <outline>
    <contour>
      <point x="367" y="680" type="line"/>
      <point x="321" y="590" type="line"/>
      <point x="298" y="590" type="line"/>
      <point x="343" y="680" type="line"/>
    </contour>
  </outline>
</glyph>
<glyph name="breve.color2" format="2">
  <advance width="600"/>
  <unicode hex="02D8"/>
  <outline>
    <contour>
      <point x="334" y="600" type="line"/>
      <point x="282" y="600" type="line"/>
      <point x="269" y="622" type="line"/>
      <point x="347" y="622" type="line"/>
    </contour>
  </outline>
</glyph>
<glyph name="ring.color0" format="2">
  <advance width="600"/>
  <unicode hex="02DA"/>
  <outline>
    <contour>
      <point x="270" y="658" type="line"/>
      <point x="288" y="676" type="line"/>
      <point x="289" y="676" type="line"/>
      <point x="289" y="591" type="line"/>
      <point x="270" y="591" type="line"/>
    </contour>
  </outline>
</glyph>
<glyph name="tilde.color2" format="2">
  <advance width="600"/>
  <unicode hex="02DC"/>
  <outline>
    <contour>
      <point x="245" y="632" type="line"/>
      <point x="245" y="633" type="line"/>
      <point x="265" y="642" type="line"/>
      <point x="266" y="642" type="line"/>
      <point x="345" y="590" type="line"/>
      <point x="345" y="589" type="line"/>
      <point x="325" y="580" type="line"/>
      <point x="324" y="580" type="line"/>
    </contour>
  </outline>
</glyph>
<glyph name="tildecomb.color1" format="2">
  <unicode hex="0303"/>
  <outline>
    <contour>
      <point x="346" y="642" type="line"/>
      <point x="346" y="590" type="line"/>
      <point x="326" y="590" type="line"/>
      <point x="326" y="642" type="line"/>
    </contour>
  </outline>
</glyph>
<glyph name="brevecomb.color1" format="2">
  <unicode hex="0306"/>
  <outline>
    <contour>
      <point x="321" y="622" type="line"/>
      <point x="350" y="672" type="line"/>
      <point x="376" y="672" type="line"/>
      <point x="376" y="671" type="line"/>
      <point x="347" y="622" type="line"/>
    </contour>
  </outline>
</glyph>
<glyph name="breveinvertedcomb" format="2">
  <unicode hex="0311"/>
  <anchor x="309" y="500" name="_top"/>
  <outline>
    <contour>
      <point x="325" y="648" type="line"/>
      <point x="351" y="648" type="line"/>
      <point x="380" y="599" type="line"/>
      <point x="380" y="598" type="line"/>
      <point x="354" y="598" type="line"/>
    </contour>
    <contour>
      <point x="299" y="648" type="line"/>
      <point x="270" y="598" type="line"/>
      <point x="244" y="598" type="line"/>
      <point x="244" y="599" type="line"/>
      <point x="273" y="648" type="line"/>
    </contour>
    <contour>
      <point x="338" y="670" type="line"/>
      <point x="351" y="648" type="line"/>
      <point x="273" y="648" type="line"/>
      <point x="286" y="670" type="line"/>
    </contour>
  </outline>
</glyph>
<glyph name="horncomb.color1" format="2">
  <unicode hex="031B"/>
  <outline>
    <contour>
      <point x="364" y="499" type="line"/>
      <point x="341" y="476" type="line"/>
      <point x="340" y="476" type="line"/>
      <point x="340" y="567" type="line"/>
      <point x="364" y="567" type="line"/>
    </contour>
  </outline>
</glyph>
<glyph name="brevebelowcomb.color1" format="2">
  <unicode hex="032E"/>
  <outline>
    <contour>
      <point x="341" y="-78" type="line"/>
      <point x="370" y="-28" type="line"/>
      <point x="396" y="-28" type="line"/>
      <point x="396" y="-29" type="line"/>
      <point x="367" y="-78" type="line"/>
    </contour>
  </outline>
</glyph>
<glyph name="wgrave" format="2">
  <advance width="270"/>
  <unicode hex="1E81"/>
  <anchor x="140" y="500" name="top"/>
  <outline>
    <contour>
      <point x="220" y="23" type="line"/>
      <point x="197" y="0" type="line"/>
      <point x="196" y="0" type="line"/>
      <point x="196" y="500" type="line"/>
      <point x="220" y="500" type="line"/>
    </contour>
    <contour>
      <point x="123" y="480" type="line"/>
      <point x="146" y="503" type="line"/>
      <point x="147" y="503" type="line"/>
      <point x="147" y="24" type="line"/>
      <point x="123" y="24" type="line"/>
    </contour>
    <contour>
      <point x="50" y="480" type="line"/>
      <point x="73" y="503" type="line"/>
      <point x="74" y="503" type="line"/>
      <point x="74" y="24" type="line"/>
      <point x="50" y="24" type="line"/>
    </contour>
    <contour>
      <point x="73" y="0" type="line"/>
      <point x="50" y="23" type="line"/>
      <point x="50" y="24" type="line"/>
      <point x="123" y="24" type="line"/>
      <point x="123" y="0" type="line"/>
    </contour>
    <contour>
      <point x="146" y="0" type="line"/>
      <point x="123" y="23" type="line"/>
      <point x="123" y="24" type="line"/>
      <point x="196" y="24" type="line"/>
      <point x="196" y="0" type="line"/>
    </contour>
    <contour>
      <point x="156" y="570" type="line"/>
      <point x="132" y="570" type="line"/>
      <point x="100" y="699" type="line"/>
      <point x="100" y="700" type="line"/>
      <point x="131" y="700" type="line"/>
    </contour>
  </outline>
</glyph>
<glyph name="wacute.color4" format="2">
  <advance width="600"/>
  <unicode hex="1E83"/>
  <outline>
    <contour>
      <point x="124" y="570" type="line"/>
      <point x="149" y="700" type="line"/>
      <point x="180" y="700" type="line"/>
      <point x="180" y="699" type="line"/>
      <point x="148" y="570" type="line"/>
    </contour>
  </outline>
</glyph>
<glyph name="Ahookabove.color5" format="2">
  <advance width="600"/>
  <unicode hex="1EA2"/>
  <outline>
    <contour>
      <point x="146" y="739" type="line"/>
      <point x="123" y="739" type="line"/>
      <point x="123" y="740" type="line"/>
      <point x="161" y="870" type="line"/>
      <point x="179" y="847" type="line"/>
      <point x="179" y="846" type="line"/>
    </contour>
  </outline>
</glyph>
<glyph name="ahookabove.color4" format="2">
  <advance width="600"/>
  <unicode hex="1EA3"/>
  <outline>
    <contour>
      <point x="144" y="654" type="line"/>
      <point x="67" y="654" type="line"/>
      <point x="67" y="678" type="line"/>
      <point x="126" y="678" type="line"/>
      <point x="144" y="655" type="line"/>
    </contour>
  </outline>
</glyph>
<glyph name="Acircumflexacute.color4" format="2">
  <advance width="600"/>
  <unicode hex="1EA4"/>
  <outline>
    <contour>
      <point x="189" y="810" type="line"/>
      <point x="214" y="900" type="line"/>
      <point x="242" y="900" type="line"/>
      <point x="242" y="899" type="line"/>
      <point x="210" y="810" type="line"/>
    </contour>
  </outline>
</glyph>
<glyph name="Acircumflexacute.color5" format="2">
  <advance width="600"/>
  <unicode hex="1EA4"/>
  <outline>
    <contour>
      <point x="195" y="770" type="line"/>
      <point x="171" y="770" type="line"/>
      <point x="127" y="860" type="line"/>
      <point x="150" y="860" type="line"/>
      <point x="151" y="860" type="line"/>
      <point x="195" y="771" type="line"/>
    </contour>
  </outline>
</glyph>
<glyph name="acircumflexhookabove" format="2">
  <advance width="197"/>
  <unicode hex="1EA9"/>
  <anchor x="102" y="0" name="bottom"/>
  <anchor x="102" y="500" name="top"/>
  <outline>
    <contour>
      <point x="50" y="477" type="line"/>
      <point x="73" y="500" type="line"/>
      <point x="74" y="500" type="line"/>
      <point x="74" y="24" type="line"/>
      <point x="50" y="24" type="line"/>
    </contour>
    <contour>
      <point x="124" y="500" type="line"/>
      <point x="147" y="477" type="line"/>
      <point x="147" y="476" type="line"/>
      <point x="74" y="476" type="line"/>
      <point x="74" y="500" type="line"/>
    </contour>
    <contour>
      <point x="147" y="0" type="line"/>
      <point x="124" y="0" type="line"/>
      <point x="123" y="0" type="line"/>
      <point x="123" y="476" type="line"/>
      <point x="147" y="476" type="line"/>
    </contour>
    <contour>
      <point x="73" y="0" type="line"/>
      <point x="50" y="23" type="line"/>
      <point x="50" y="24" type="line"/>
      <point x="123" y="24" type="line"/>
      <point x="123" y="0" type="line"/>
    </contour>
    <contour>
      <point x="160" y="540" type="line"/>
      <point x="136" y="540" type="line"/>
      <point x="92" y="630" type="line"/>
      <point x="115" y="630" type="line"/>
      <point x="116" y="630" type="line"/>
      <point x="160" y="541" type="line"/>
    </contour>
    <contour>
      <point x="46" y="540" type="line"/>
      <point x="46" y="541" type="line"/>
      <point x="92" y="630" type="line"/>
      <point x="115" y="630" type="line"/>
      <point x="70" y="540" type="line"/>
    </contour>
    <contour>
      <point x="151" y="746" type="line"/>
      <point x="74" y="746" type="line"/>
      <point x="74" y="770" type="line"/>
      <point x="133" y="770" type="line"/>
      <point x="151" y="747" type="line"/>
    </contour>
    <contour>
      <point x="118" y="675" type="line"/>
      <point x="95" y="675" type="line"/>
      <point x="95" y="676" type="line"/>
      <point x="133" y="770" type="line"/>
      <point x="151" y="747" type="line"/>
      <point x="151" y="746" type="line"/>
    </contour>
  </outline>
</glyph>
<glyph name="Acircumflextilde.color4" format="2">
  <advance width="600"/>
  <unicode hex="1EAA"/>
  <outline>
    <contour>
      <point x="72" y="839" type="line"/>
      <point x="72" y="890" type="line"/>
      <point x="96" y="891" type="line"/>
      <point x="96" y="839" type="line"/>
    </contour>
  </outline>
</glyph>
<glyph name="acircumflextilde.color3" format="2">
  <advance width="600"/>
  <unicode hex="1EAB"/>
  <outline>
    <contour>
      <point x="73" y="0" type="line"/>
      <point x="50" y="23" type="line"/>
      <point x="50" y="24" type="line"/>
      <point x="123" y="24" type="line"/>
      <point x="123" y="0" type="line"/>
    </contour>
  </outline>
</glyph>
<glyph name="acircumflextilde.color6" format="2">
  <advance width="600"/>
  <unicode hex="1EAB"/>
  <outline>
    <contour>
      <point x="59" y="663" type="line"/>
      <point x="59" y="714" type="line"/>
      <point x="79" y="715" type="line"/>
      <point x="79" y="663" type="line"/>
    </contour>
  </outline>
</glyph>
<glyph name="acircumflextilde" format="2">
  <advance width="197"/>
  <unicode hex="1EAB"/>
  <anchor x="102" y="0" name="bottom"/>
  <anchor x="102" y="500" name="top"/>
  <outline>
    <contour>
      <point x="50" y="477" type="line"/>
      <point x="73" y="500" type="line"/>
      <point x="74" y="500" type="line"/>
      <point x="74" y="24" type="line"/>
      <point x="50" y="24" type="line"/>
    </contour>
    <contour>
      <point x="124" y="500" type="line"/>
      <point x="147" y="477" type="line"/>
      <point x="147" y="476" type="line"/>
      <point x="74" y="476" type="line"/>
      <point x="74" y="500" type="line"/>
    </contour>
    <contour>
      <point x="147" y="0" type="line"/>
      <point x="124" y="0" type="line"/>
      <point x="123" y="0" type="line"/>
      <point x="123" y="476" type="line"/>
      <point x="147" y="476" type="line"/>
    </contour>
    <contour>
      <point x="73" y="0" type="line"/>
      <point x="50" y="23" type="line"/>
      <point x="50" y="24" type="line"/>
      <point x="123" y="24" type="line"/>
      <point x="123" y="0" type="line"/>
    </contour>
    <contour>
      <point x="160" y="540" type="line"/>
      <point x="136" y="540" type="line"/>
      <point x="92" y="630" type="line"/>
      <point x="115" y="630" type="line"/>
      <point x="116" y="630" type="line"/>
      <point x="160" y="541" type="line"/>
    </contour>
    <contour>
      <point x="46" y="540" type="line"/>
      <point x="46" y="541" type="line"/>
      <point x="92" y="630" type="line"/>
      <point x="115" y="630" type="line"/>
      <point x="70" y="540" type="line"/>
    </contour>
    <contour>
      <point x="59" y="663" type="line"/>
      <point x="59" y="714" type="line"/>
      <point x="79" y="715" type="line"/>
      <point x="79" y="663" type="line"/>
    </contour>
    <contour>
      <point x="160" y="724" type="line"/>
      <point x="160" y="672" type="line"/>
      <point x="140" y="672" type="line"/>
      <point x="140" y="724" type="line"/>
    </contour>
    <contour>
      <point x="59" y="714" type="line"/>
      <point x="59" y="715" type="line"/>
      <point x="79" y="724" type="line"/>
      <point x="80" y="724" type="line"/>
      <point x="159" y="672" type="line"/>
      <point x="159" y="671" type="line"/>
      <point x="139" y="662" type="line"/>
      <point x="138" y="662" type="line"/>
    </contour>
  </outline>
</glyph>
<glyph name="acircumflexdotbelow" format="2">
  <advance width="197"/>
  <unicode hex="1EAD"/>
  <anchor x="102" y="0" name="bottom"/>
  <anchor x="109" y="602" name="top"/>
  <outline>
    <contour>
      <point x="50" y="477" type="line"/>
      <point x="73" y="500" type="line"/>
      <point x="74" y="500" type="line"/>
      <point x="74" y="24" type="line"/>
      <point x="50" y="24" type="line"/>
    </contour>
    <contour>
      <point x="124" y="500" type="line"/>
      <point x="147" y="477" type="line"/>
      <point x="147" y="476" type="line"/>
      <point x="74" y="476" type="line"/>
      <point x="74" y="500" type="line"/>
    </contour>
    <contour>
      <point x="147" y="0" type="line"/>
      <point x="124" y="0" type="line"/>
      <point x="123" y="0" type="line"/>
      <point x="123" y="476" type="line"/>
      <point x="147" y="476" type="line"/>
    </contour>
    <contour>
      <point x="73" y="0" type="line"/>
      <point x="50" y="23" type="line"/>
      <point x="50" y="24" type="line"/>
      <point x="123" y="24" type="line"/>
      <point x="123" y="0" type="line"/>
    </contour>
    <contour>
      <point x="118" y="-119" type="line"/>
      <point x="88" y="-119" type="line"/>
      <point x="88" y="-85" type="line"/>
      <point x="118" y="-85" type="line"/>
    </contour>
    <contour>
      <point x="160" y="590" type="line"/>
      <point x="136" y="590" type="line"/>
      <point x="92" y="680" type="line"/>
      <point x="115" y="680" type="line"/>
      <point x="116" y="680" type="line"/>
    </contour>
    <contour>
      <point x="46" y="590" type="line"/>
      <point x="92" y="680" type="line"/>
      <point x="115" y="680" type="line"/>
      <point x="70" y="590" type="line"/>
    </contour>
  </outline>
</glyph>
<glyph name="Abreveacute.color4" format="2">
  <advance width="600"/>
  <unicode hex="1EAE"/>
  <outline>
    <contour>
      <point x="123" y="783" type="line"/>
      <point x="91" y="783" type="line"/>
      <point x="60" y="819" type="line"/>
      <point x="60" y="820" type="line"/>
      <point x="92" y="820" type="line"/>
    </contour>
  </outline>
</glyph>
<glyph name="abrevegrave" format="2">
  <advance width="197"/>
  <unicode hex="1EB1"/>
  <anchor x="102" y="0" name="bottom"/>
  <anchor x="102" y="500" name="top"/>
  <outline>
    <contour>
      <point x="50" y="477" type="line"/>
      <point x="73" y="500" type="line"/>
      <point x="74" y="500" type="line"/>
      <point x="74" y="24" type="line"/>
      <point x="50" y="24" type="line"/>
    </contour>
    <contour>
      <point x="124" y="500" type="line"/>
      <point x="147" y="477" type="line"/>
      <point x="147" y="476" type="line"/>
      <point x="74" y="476" type="line"/>
      <point x="74" y="500" type="line"/>
    </contour>
    <contour>
      <point x="147" y="0" type="line"/>
      <point x="124" y="0" type="line"/>
      <point x="123" y="0" type="line"/>
      <point x="123" y="476" type="line"/>
      <point x="147" y="476" type="line"/>
    </contour>
    <contour>
      <point x="73" y="0" type="line"/>
      <point x="50" y="23" type="line"/>
      <point x="50" y="24" type="line"/>
      <point x="123" y="24" type="line"/>
      <point x="123" y="0" type="line"/>
    </contour>
    <contour>
      <point x="88" y="580" type="line"/>
      <point x="62" y="580" type="line"/>
      <point x="33" y="629" type="line"/>
      <point x="33" y="630" type="line"/>
      <point x="59" y="630" type="line"/>
    </contour>
    <contour>
      <point x="114" y="580" type="line"/>
      <point x="143" y="630" type="line"/>
      <point x="169" y="630" type="line"/>
      <point x="169" y="629" type="line"/>
      <point x="140" y="580" type="line"/>
    </contour>
    <contour>
      <point x="127" y="558" type="line"/>
      <point x="75" y="558" type="line"/>
      <point x="62" y="580" type="line"/>
      <point x="140" y="580" type="line"/>
    </contour>
    <contour>
      <point x="114" y="617" type="line"/>
      <point x="92" y="617" type="line"/>
      <point x="60" y="731" type="line"/>
      <point x="60" y="732" type="line"/>
      <point x="89" y="732" type="line"/>
    </contour>
  </outline>
</glyph>
<glyph name="Abrevehookabove.color6" format="2">
  <advance width="600"/>
  <unicode hex="1EB2"/>
  <outline>
    <contour>
      <point x="166" y="761" type="line"/>
      <point x="110" y="761" type="line"/>
      <point x="91" y="783" type="line"/>
      <point x="185" y="783" type="line"/>
    </contour>
  </outline>
</glyph>
<glyph name="Abrevetilde.color7" format="2">
  <advance width="600"/>
  <unicode hex="1EB4"/>
  <outline>
    <contour>
      <point x="78" y="831" type="line"/>
      <point x="78" y="882" type="line"/>
      <point x="102" y="883" type="line"/>
      <point x="102" y="831" type="line"/>
    </contour>
  </outline>
</glyph>
<glyph name="Abrevedotbelow.color7" format="2">
  <advance width="600"/>
  <unicode hex="1EB6"/>
  <outline>
    <contour>
      <point x="166" y="781" type="line"/>
      <point x="110" y="781" type="line"/>
      <point x="91" y="803" type="line"/>
      <point x="185" y="803" type="line"/>
    </contour>
  </outline>
</glyph>
<glyph name="Edotbelow.color4" format="2">
  <advance width="600"/>
  <unicode hex="1EB8"/>
  <outline>
    <contour>
      <point x="151" y="-119" type="line"/>
      <point x="121" y="-119" type="line"/>
      <point x="121" y="-85" type="line"/>
      <point x="151" y="-85" type="line"/>
    </contour>
  </outline>
</glyph>
<glyph name="etilde.color3" format="2">
  <advance width="600"/>
  <unicode hex="1EBD"/>
  <outline>
    <contour>
      <point x="123" y="226" type="line"/>
      <point x="123" y="202" type="line"/>
      <point x="74" y="202" type="line"/>
      <point x="74" y="226" type="line"/>
    </contour>
  </outline>
</glyph>
<glyph name="ecircumflexacute.color5" format="2">
  <advance width="600"/>
  <unicode hex="1EBF"/>
  <outline>
    <contour>
      <point x="89" y="663" type="line"/>
      <point x="114" y="772" type="line"/>
      <point x="145" y="772" type="line"/>
      <point x="145" y="771" type="line"/>
      <point x="113" y="663" type="line"/>
    </contour>
  </outline>
</glyph>
<glyph name="Ecircumflexgrave.color4" format="2">
  <advance width="600"/>
  <unicode hex="1EC0"/>
  <outline>
    <contour>
      <point x="196" y="744" type="line"/>
      <point x="172" y="744" type="line"/>
      <point x="128" y="834" type="line"/>
      <point x="151" y="834" type="line"/>
      <point x="152" y="834" type="line"/>
      <point x="196" y="745" type="line"/>
    </contour>
  </outline>
</glyph>
<glyph name="ecircumflexhookabove.color7" format="2">
  <advance width="600"/>
  <unicode hex="1EC3"/>
  <outline>
    <contour>
      <point x="149" y="746" type="line"/>
      <point x="72" y="746" type="line"/>
      <point x="72" y="770" type="line"/>
      <point x="131" y="770" type="line"/>
      <point x="149" y="747" type="line"/>
    </contour>
  </outline>
</glyph>
<glyph name="Ecircumflexdotbelow.color6" format="2">
  <advance width="600"/>
  <unicode hex="1EC6"/>
  <outline>
    <contour>
      <point x="78" y="760" type="line"/>
      <point x="78" y="761" type="line"/>
      <point x="124" y="850" type="line"/>
      <point x="147" y="850" type="line"/>
      <point x="102" y="760" type="line"/>
    </contour>
  </outline>
</glyph>
<glyph name="Ecircumflexdotbelow" format="2">
  <advance width="240"/>
  <unicode hex="1EC6"/>
  <anchor x="135" y="0" name="bottom"/>
  <anchor x="138" y="700" name="top"/>
  <outline>
    <contour>
      <point x="53" y="700" type="line"/>
      <point x="77" y="700" type="line"/>
      <point x="77" y="24" type="line"/>
      <point x="53" y="24" type="line"/>
    </contour>
    <contour>
      <point x="197" y="676" type="line"/>
      <point x="77" y="676" type="line"/>
      <point x="77" y="700" type="line"/>
      <point x="220" y="700" type="line"/>
      <point x="220" y="699" type="line"/>
    </contour>
    <contour>
      <point x="196" y="353" type="line"/>
      <point x="77" y="353" type="line"/>
      <point x="77" y="377" type="line"/>
      <point x="196" y="377" type="line"/>
    </contour>
    <contour>
      <point x="220" y="0" type="line"/>
      <point x="77" y="0" type="line"/>
      <point x="53" y="23" type="line"/>
      <point x="53" y="24" type="line"/>
      <point x="220" y="24" type="line"/>
    </contour>
    <contour>
      <point x="151" y="-119" type="line"/>
      <point x="121" y="-119" type="line"/>
      <point x="121" y="-85" type="line"/>
      <point x="151" y="-85" type="line"/>
    </contour>
    <contour>
      <point x="192" y="760" type="line"/>
      <point x="168" y="760" type="line"/>
      <point x="124" y="850" type="line"/>
      <point x="147" y="850" type="line"/>
      <point x="148" y="850" type="line"/>
      <point x="192" y="761" type="line"/>
    </contour>
    <contour>
      <point x="78" y="760" type="line"/>
      <point x="78" y="761" type="line"/>
      <point x="124" y="850" type="line"/>
      <point x="147" y="850" type="line"/>
      <point x="102" y="760" type="line"/>
    </contour>
  </outline>
</glyph>
<glyph name="Ocircumflexgrave.color6" format="2">
  <advance width="600"/>
  <unicode hex="1ED2"/>
  <outline>
    <contour>
      <point x="223" y="810" type="line"/>
      <point x="202" y="810" type="line"/>
      <point x="170" y="899" type="line"/>
      <point x="170" y="900" type="line"/>
      <point x="198" y="900" type="line"/>
    </contour>
  </outline>
</glyph>
<glyph name="ocircumflexgrave.color4" format="2">
  <advance width="600"/>
  <unicode hex="1ED3"/>
  <outline>
    <contour>
      <point x="114" y="662" type="line"/>
      <point x="90" y="662" type="line"/>
      <point x="58" y="771" type="line"/>
      <point x="58" y="772" type="line"/>
      <point x="89" y="772" type="line"/>
    </contour>
  </outline>
</glyph>
<glyph name="Ocircumflexhookabove.color6" format="2">
  <advance width="600"/>
  <unicode hex="1ED4"/>
  <outline>
    <contour>
      <point x="250" y="876" type="line"/>
      <point x="173" y="876" type="line"/>
      <point x="173" y="900" type="line"/>
      <point x="232" y="900" type="line"/>
      <point x="250" y="877" type="line"/>
    </contour>
  </outline>
</glyph>
<glyph name="ocircumflexhookabove.color7" format="2">
  <advance width="600"/>
  <unicode hex="1ED5"/>
  <outline>
    <contour>
      <point x="115" y="675" type="line"/>
      <point x="92" y="675" type="line"/>
      <point x="92" y="676" type="line"/>
      <point x="130" y="770" type="line"/>
      <point x="148" y="747" type="line"/>
      <point x="148" y="746" type="line"/>
    </contour>
  </outline>
</glyph>
<glyph name="ocircumflextilde.color7" format="2">
  <advance width="600"/>
  <unicode hex="1ED7"/>
  <outline>
    <contour>
      <point x="157" y="724" type="line"/>
      <point x="157" y="672" type="line"/>
      <point x="137" y="672" type="line"/>
      <point x="137" y="724" type="line"/>
    </contour>
  </outline>
</glyph>
<glyph name="ohorndotbelow.color5" format="2">
  <advance width="600"/>
  <unicode hex="1EE3"/>
  <outline>
    <contour>
      <point x="179" y="499" type="line"/>
      <point x="156" y="476" type="line"/>
      <point x="155" y="476" type="line"/>
      <point x="155" y="567" type="line"/>
      <point x="179" y="567" type="line"/>
    </contour>
  </outline>
</glyph>
<glyph name="Uhookabove" format="2">
  <advance width="273"/>
  <unicode hex="1EE6"/>
  <anchor x="132" y="0" name="bottom"/>
  <anchor x="196" y="700" name="horn"/>
  <anchor x="143" y="701" name="top"/>
  <outline>
    <contour>
      <point x="220" y="23" type="line"/>
      <point x="197" y="0" type="line"/>
      <point x="196" y="0" type="line"/>
      <point x="196" y="700" type="line"/>
      <point x="220" y="700" type="line"/>
    </contour>
    <contour>
      <point x="76" y="0" type="line"/>
      <point x="53" y="23" type="line"/>
      <point x="53" y="24" type="line"/>
      <point x="196" y="24" type="line"/>
      <point x="196" y="0" type="line"/>
    </contour>
    <contour>
      <point x="53" y="700" type="line"/>
      <point x="76" y="700" type="line"/>
      <point x="77" y="700" type="line"/>
      <point x="77" y="24" type="line"/>
      <point x="53" y="24" type="line"/>
    </contour>
    <contour>
      <point x="184" y="847" type="line"/>
      <point x="107" y="847" type="line"/>
      <point x="107" y="871" type="line"/>
      <point x="166" y="871" type="line"/>
      <point x="184" y="848" type="line"/>
    </contour>
    <contour>
      <point x="151" y="740" type="line"/>
      <point x="128" y="740" type="line"/>
      <point x="128" y="741" type="line"/>
      <point x="166" y="871" type="line"/>
      <point x="184" y="848" type="line"/>
      <point x="184" y="847" type="line"/>
    </contour>
  </outline>
</glyph>
<glyph name="uhornacute" format="2">
  <advance width="197"/>
  <unicode hex="1EE9"/>
  <anchor x="102" y="0" name="bottom"/>
  <anchor x="123" y="500" name="horn"/>
  <anchor x="100" y="500" name="top"/>
  <outline>
    <contour>
      <point x="147" y="0" type="line"/>
      <point x="124" y="0" type="line"/>
      <point x="123" y="0" type="line"/>
      <point x="123" y="500" type="line"/>
      <point x="147" y="500" type="line"/>
    </contour>
    <contour>
      <point x="73" y="0" type="line"/>
      <point x="50" y="23" type="line"/>
      <point x="50" y="24" type="line"/>
      <point x="123" y="24" type="line"/>
      <point x="123" y="0" type="line"/>
    </contour>
    <contour>
      <point x="50" y="483" type="line"/>
      <point x="73" y="506" type="line"/>
      <point x="74" y="506" type="line"/>
      <point x="74" y="24" type="line"/>
      <point x="50" y="24" type="line"/>
    </contour>
    <contour>
      <point x="123" y="500" type="line"/>
      <point x="154" y="500" type="line"/>
      <point x="154" y="476" type="line"/>
      <point x="146" y="476" type="line"/>
    </contour>
    <contour>
      <point x="178" y="499" type="line"/>
      <point x="155" y="476" type="line"/>
      <point x="154" y="476" type="line"/>
      <point x="154" y="567" type="line"/>
      <point x="178" y="567" type="line"/>
    </contour>
    <contour>
      <point x="84" y="570" type="line"/>
      <point x="109" y="700" type="line"/>
      <point x="140" y="700" type="line"/>
      <point x="140" y="699" type="line"/>
      <point x="108" y="570" type="line"/>
    </contour>
  </outline>
</glyph>
<glyph name="Uhornhookabove.color5" format="2">
  <advance width="600"/>
  <unicode hex="1EEC"/>
  <outline>
    <contour>
      <point x="184" y="847" type="line"/>
      <point x="107" y="847" type="line"/>
      <point x="107" y="871" type="line"/>
      <point x="166" y="871" type="line"/>
      <point x="184" y="848" type="line"/>
    </contour>
  </outline>
</glyph>
<glyph name="yhookabove.color3" format="2">
  <advance width="600"/>
  <unicode hex="1EF7"/>
  <outline>
    <contour>
      <point x="50" y="-200" type="line"/>
      <point x="50" y="-177" type="line"/>
      <point x="50" y="-176" type="line"/>
      <point x="123" y="-176" type="line"/>
      <point x="123" y="-200" type="line"/>
    </contour>
  </outline>
</glyph>
<glyph name="ytilde.color5" format="2">
  <advance width="600"/>
  <unicode hex="1EF9"/>
  <outline>
    <contour>
      <point x="151" y="642" type="line"/>
      <point x="151" y="590" type="line"/>
      <point x="131" y="590" type="line"/>
      <point x="131" y="642" type="line"/>
    </contour>
  </outline>
</glyph>
<glyph name="ytilde.color6" format="2">
  <advance width="600"/>
  <unicode hex="1EF9"/>
  <outline>
    <contour>
      <point x="50" y="632" type="line"/>
      <point x="50" y="633" type="line"/>
      <point x="70" y="642" type="line"/>
      <point x="71" y="642" type="line"/>
      <point x="150" y="590" type="line"/>
      <point x="150" y="589" type="line"/>
      <point x="130" y="580" type="line"/>
      <point x="129" y="580" type="line"/>
    </contour>
  </outline>
</glyph>
<glyph name="emdash" format="2">
  <advance width="276"/>
  <unicode hex="2014"/>
  <outline>
    <contour>
      <point x="223" y="358" type="line"/>
      <point x="53" y="358" type="line"/>
      <point x="53" y="382" type="line"/>
      <point x="223" y="382" type="line"/>
      <point x="223" y="381" type="line"/>
    </contour>
  </outline>
</glyph>
<glyph name="quoteleft.color1" format="2">
  <advance width="600"/>
  <unicode hex="2018"/>
  <outline>
    <contour>
      <point x="46" y="700" type="line"/>
      <point x="66" y="700" type="line"/>
      <point x="67" y="700" type="line"/>
      <point x="57" y="620" type="line"/>
      <point x="33" y="620" type="line"/>
    </contour>
  </outline>
</glyph>
<glyph name="quoteright.color0" format="2">
  <advance width="600"/>
  <unicode hex="2019"/>
  <outline>
    <contour>
      <point x="74" y="665" type="line"/>
      <point x="33" y="665" type="line"/>
      <point x="33" y="700" type="line"/>
      <point x="51" y="700" type="line"/>
    </contour>
  </outline>
</glyph>
<glyph name="quotesinglbase.color1" format="2">
  <advance width="600"/>
  <unicode hex="201A"/>
  <outline>
    <contour>
      <point x="61" y="-91" type="line"/>
      <point x="41" y="-91" type="line"/>
      <point x="40" y="-91" type="line"/>
      <point x="50" y="-11" type="line"/>
      <point x="74" y="-11" type="line"/>
    </contour>
  </outline>
</glyph>
<glyph name="quotedblleft.color0" format="2">
  <advance width="600"/>
  <unicode hex="201C"/>
  <outline>
    <contour>
      <point x="84" y="623" type="line"/>
      <point x="125" y="623" type="line"/>
      <point x="125" y="588" type="line"/>
      <point x="107" y="588" type="line"/>
    </contour>
  </outline>
</glyph>
<glyph name="quotedblleft.color2" format="2">
  <advance width="600"/>
  <unicode hex="201C"/>
  <outline>
    <contour>
      <point x="33" y="623" type="line"/>
      <point x="74" y="623" type="line"/>
      <point x="74" y="588" type="line"/>
      <point x="56" y="588" type="line"/>
    </contour>
  </outline>
</glyph>
<glyph name="quotedblleft" format="2">
  <advance width="158"/>
  <unicode hex="201C"/>
  <outline>
    <contour>
      <point x="84" y="623" type="line"/>
      <point x="125" y="623" type="line"/>
      <point x="125" y="588" type="line"/>
      <point x="107" y="588" type="line"/>
    </contour>
    <contour>
      <point x="97" y="703" type="line"/>
      <point x="117" y="703" type="line"/>
      <point x="118" y="703" type="line"/>
      <point x="108" y="623" type="line"/>
      <point x="84" y="623" type="line"/>
    </contour>
    <contour>
      <point x="33" y="623" type="line"/>
      <point x="74" y="623" type="line"/>
      <point x="74" y="588" type="line"/>
      <point x="56" y="588" type="line"/>
    </contour>
    <contour>
      <point x="46" y="703" type="line"/>
      <point x="66" y="703" type="line"/>
      <point x="67" y="703" type="line"/>
      <point x="57" y="623" type="line"/>
      <point x="33" y="623" type="line"/>
    </contour>
  </outline>
</glyph>
<glyph name="quotedblright.color3" format="2">
  <advance width="600"/>
  <unicode hex="201D"/>
  <outline>
    <contour>
      <point x="112" y="585" type="line"/>
      <point x="92" y="585" type="line"/>
      <point x="91" y="585" type="line"/>
      <point x="101" y="665" type="line"/>
      <point x="125" y="665" type="line"/>
    </contour>
  </outline>
</glyph>
<glyph name="quotedblbase" format="2">
  <advance width="158"/>
  <unicode hex="201E"/>
  <outline>
    <contour>
      <point x="74" y="-11" type="line"/>
      <point x="33" y="-11" type="line"/>
      <point x="33" y="24" type="line"/>
      <point x="51" y="24" type="line"/>
    </contour>
    <contour>
      <point x="61" y="-91" type="line"/>
      <point x="41" y="-91" type="line"/>
      <point x="40" y="-91" type="line"/>
      <point x="50" y="-11" type="line"/>
      <point x="74" y="-11" type="line"/>
    </contour>
    <contour>
      <point x="125" y="-11" type="line"/>
      <point x="84" y="-11" type="line"/>
      <point x="84" y="24" type="line"/>
      <point x="102" y="24" type="line"/>
    </contour>
    <contour>
      <point x="112" y="-91" type="line"/>
      <point x="92" y="-91" type="line"/>
      <point x="91" y="-91" type="line"/>
      <point x="101" y="-11" type="line"/>
      <point x="125" y="-11" type="line"/>
    </contour>
  </outline>
</glyph>
<glyph name="bullet.color0" format="2">
  <advance width="600"/>
  <unicode hex="2022"/>
  <outline>
    <contour>
      <point x="43" y="363" type="line"/>
      <point x="77" y="363" type="line"/>
      <point x="77" y="275" type="line"/>
      <point x="43" y="275" type="line"/>
    </contour>
  </outline>
</glyph>
<glyph name="perthousand.color11" format="2">
  <advance width="600"/>
  <unicode hex="2030"/>
  <outline>
    <contour>
      <point x="509" y="43" type="line"/>
      <point x="486" y="20" type="line"/>
      <point x="485" y="20" type="line"/>
      <point x="485" y="296" type="line"/>
      <point x="509" y="296" type="line"/>
    </contour>
  </outline>
</glyph>
<glyph name="guilsinglright.color1" format="2">
  <advance width="600"/>
  <unicode hex="203A"/>
  <outline>
    <contour>
      <point x="62" y="453" type="line"/>
      <point x="205" y="277" type="line"/>
      <point x="205" y="276" type="line"/>
      <point x="176" y="276" type="line"/>
      <point x="33" y="452" type="line"/>
      <point x="33" y="453" type="line"/>
    </contour>
  </outline>
</glyph>
<glyph name="colonsign.color4" format="2">
  <advance width="600"/>
  <unicode hex="20A1"/>
  <outline>
    <contour>
      <point x="81" y="0" type="line"/>
      <point x="58" y="23" type="line"/>
      <point x="58" y="24" type="line"/>
      <point x="225" y="24" type="line"/>
      <point x="202" y="0" type="line"/>
    </contour>
  </outline>
</glyph>
<glyph name="franc.color2" format="2">
  <advance width="600"/>
  <unicode hex="20A3"/>
  <outline>
    <contour>
      <point x="212" y="676" type="line"/>
      <point x="92" y="676" type="line"/>
      <point x="92" y="700" type="line"/>
      <point x="235" y="700" type="line"/>
      <point x="235" y="699" type="line"/>
    </contour>
  </outline>
</glyph>
<glyph name="naira.color2" format="2">
  <advance width="600"/>
  <unicode hex="20A6"/>
  <outline>
    <contour>
      <point x="365" y="398" type="line"/>
      <point x="388" y="375" type="line"/>
      <point x="388" y="374" type="line"/>
      <point x="23" y="373" type="line"/>
      <point x="23" y="374" type="line"/>
      <point x="0" y="397" type="line"/>
    </contour>
  </outline>
</glyph>
<glyph name="naira" format="2">
  <advance width="388"/>
  <unicode hex="20A6"/>
  <outline>
    <contour>
      <point x="88" y="0" type="line"/>
      <point x="88" y="679" type="line"/>
      <point x="112" y="655" type="line"/>
      <point x="112" y="0" type="line"/>
    </contour>
    <contour>
      <point x="295" y="700" type="line"/>
      <point x="295" y="22" type="line"/>
      <point x="271" y="46" type="line"/>
      <point x="271" y="700" type="line"/>
    </contour>
    <contour>
      <point x="365" y="398" type="line"/>
      <point x="388" y="375" type="line"/>
      <point x="388" y="374" type="line"/>
      <point x="23" y="373" type="line"/>
      <point x="23" y="374" type="line"/>
      <point x="0" y="397" type="line"/>
    </contour>
    <contour>
      <point x="365" y="309" type="line"/>
      <point x="388" y="286" type="line"/>
      <point x="388" y="285" type="line"/>
      <point x="23" y="284" type="line"/>
      <point x="23" y="285" type="line"/>
      <point x="0" y="308" type="line"/>
    </contour>
    <contour>
      <point x="88" y="679" type="line"/>
      <point x="88" y="680" type="line"/>
      <point x="111" y="703" type="line"/>
      <point x="112" y="703" type="line"/>
      <point x="295" y="22" type="line"/>
      <point x="295" y="21" type="line"/>
      <point x="272" y="-3" type="line"/>
      <point x="271" y="-3" type="line"/>
    </contour>
  </outline>
</glyph>
<glyph name="peseta.color3" format="2">
  <advance width="600"/>
  <unicode hex="20A7"/>
  <outline>
    <contour>
      <point x="282" y="534" type="line"/>
      <point x="305" y="511" type="line"/>
      <point x="305" y="510" type="line"/>
      <point x="46" y="510" type="line"/>
      <point x="23" y="533" type="line"/>
      <point x="23" y="534" type="line"/>
    </contour>
  </outline>
</glyph>
<glyph name="won.color3" format="2">
  <advance width="600"/>
  <unicode hex="20A9"/>
  <outline>
    <contour>
      <point x="484" y="403" type="line"/>
      <point x="507" y="380" type="line"/>
      <point x="507" y="379" type="line"/>
      <point x="48" y="378" type="line"/>
      <point x="48" y="379" type="line"/>
      <point x="25" y="402" type="line"/>
    </contour>
  </outline>
</glyph>
<glyph name="dong.color0" format="2">
  <advance width="600"/>
  <unicode hex="20AB"/>
  <outline>
    <contour>
      <point x="181" y="635" type="line"/>
      <point x="204" y="612" type="line"/>
      <point x="204" y="611" type="line"/>
      <point x="101" y="611" type="line"/>
      <point x="78" y="634" type="line"/>
      <point x="78" y="635" type="line"/>
    </contour>
  </outline>
</glyph>
<glyph name="peso" format="2">
  <advance width="305"/>
  <unicode hex="20B1"/>
  <outline>
    <contour>
      <point x="218" y="700" type="line"/>
      <point x="241" y="677" type="line"/>
      <point x="241" y="676" type="line"/>
      <point x="97" y="676" type="line"/>
      <point x="97" y="700" type="line"/>
    </contour>
    <contour>
      <point x="241" y="376" type="line"/>
      <point x="218" y="353" type="line"/>
      <point x="217" y="353" type="line"/>
      <point x="217" y="676" type="line"/>
      <point x="241" y="676" type="line"/>
    </contour>
    <contour>
      <point x="97" y="353" type="line"/>
      <point x="97" y="376" type="line"/>
      <point x="97" y="377" type="line"/>
      <point x="217" y="377" type="line"/>
      <point x="217" y="353" type="line"/>
    </contour>
    <contour>
      <point x="282" y="583" type="line"/>
      <point x="305" y="560" type="line"/>
      <point x="305" y="559" type="line"/>
      <point x="46" y="559" type="line"/>
      <point x="23" y="582" type="line"/>
      <point x="23" y="583" type="line"/>
    </contour>
    <contour>
      <point x="282" y="494" type="line"/>
      <point x="305" y="471" type="line"/>
      <point x="305" y="470" type="line"/>
      <point x="46" y="470" type="line"/>
      <point x="23" y="493" type="line"/>
      <point x="23" y="494" type="line"/>
    </contour>
    <contour>
      <point x="73" y="677" type="line"/>
      <point x="96" y="700" type="line"/>
      <point x="97" y="700" type="line"/>
      <point x="97" y="0" type="line"/>
      <point x="73" y="0" type="line"/>
    </contour>
  </outline>
</glyph>
<glyph name="rupeeIndian.color1" format="2">
  <advance width="600"/>
  <unicode hex="20B9"/>
  <outline>
    <contour>
      <point x="173" y="700" type="line"/>
      <point x="196" y="676" type="line"/>
      <point x="53" y="676" type="line"/>
      <point x="53" y="677" type="line"/>
      <point x="53" y="700" type="line"/>
    </contour>
  </outline>
</glyph>
<glyph name="liraTurkish.color1" format="2">
  <advance width="600"/>
  <unicode hex="20BA"/>
  <outline>
    <contour>
      <point x="258" y="456" type="line"/>
      <point x="258" y="455" type="line"/>
      <point x="36" y="145" type="line"/>
      <point x="33" y="185" type="line"/>
      <point x="33" y="186" type="line"/>
      <point x="255" y="496" type="line"/>
    </contour>
  </outline>
</glyph>
<glyph name="liraTurkish" format="2">
  <advance width="341"/>
  <unicode hex="20BA"/>
  <outline>
    <contour>
      <point x="261" y="556" type="line"/>
      <point x="261" y="555" type="line"/>
      <point x="39" y="245" type="line"/>
      <point x="36" y="285" type="line"/>
      <point x="36" y="286" type="line"/>
      <point x="258" y="596" type="line"/>
    </contour>
    <contour>
      <point x="258" y="456" type="line"/>
      <point x="258" y="455" type="line"/>
      <point x="36" y="145" type="line"/>
      <point x="33" y="185" type="line"/>
      <point x="33" y="186" type="line"/>
      <point x="255" y="496" type="line"/>
    </contour>
    <contour>
      <point x="288" y="23" type="line"/>
      <point x="265" y="0" type="line"/>
      <point x="264" y="0" type="line"/>
      <point x="264" y="210" type="line"/>
      <point x="288" y="210" type="line"/>
    </contour>
    <contour>
      <point x="144" y="0" type="line"/>
      <point x="121" y="23" type="line"/>
      <point x="121" y="24" type="line"/>
      <point x="264" y="24" type="line"/>
      <point x="264" y="0" type="line"/>
    </contour>
    <contour>
      <point x="121" y="700" type="line"/>
      <point x="144" y="700" type="line"/>
      <point x="145" y="700" type="line"/>
      <point x="145" y="24" type="line"/>
      <point x="121" y="24" type="line"/>
    </contour>
  </outline>
</glyph>
<glyph name="numero.color6" format="2">
  <advance width="600"/>
  <unicode hex="2116"/>
  <outline>
    <contour>
      <point x="358" y="100" type="line"/>
      <point x="335" y="123" type="line"/>
      <point x="335" y="124" type="line"/>
      <point x="409" y="124" type="line"/>
      <point x="409" y="100" type="line"/>
    </contour>
  </outline>
</glyph>
<glyph name="trademark.color2" format="2">
  <advance width="600"/>
  <unicode hex="2122"/>
  <outline>
    <contour>
      <point x="151" y="678" type="line"/>
      <point x="104" y="678" type="line"/>
      <point x="104" y="702" type="line"/>
      <point x="151" y="702" type="line"/>
    </contour>
  </outline>
</glyph>
<glyph name="trademark.color4" format="2">
  <advance width="600"/>
  <unicode hex="2122"/>
  <outline>
    <contour>
      <point x="350" y="694" type="line"/>
      <point x="276" y="429" type="line"/>
      <point x="263" y="472" type="line"/>
      <point x="327" y="703" type="line"/>
    </contour>
  </outline>
</glyph>
<glyph name="trademark" format="2">
  <advance width="394"/>
  <unicode hex="2122"/>
  <outline>
    <contour>
      <point x="80" y="678" type="line"/>
      <point x="103" y="702" type="line"/>
      <point x="104" y="702" type="line"/>
      <point x="104" y="430" type="line"/>
      <point x="81" y="430" type="line"/>
      <point x="80" y="430" type="line"/>
    </contour>
    <contour>
      <point x="80" y="678" type="line"/>
      <point x="33" y="678" type="line"/>
      <point x="33" y="702" type="line"/>
      <point x="103" y="702" type="line"/>
    </contour>
    <contour>
      <point x="151" y="678" type="line"/>
      <point x="104" y="678" type="line"/>
      <point x="104" y="702" type="line"/>
      <point x="151" y="702" type="line"/>
    </contour>
    <contour>
      <point x="173" y="430" type="line"/>
      <point x="173" y="693" type="line"/>
      <point x="197" y="685" type="line"/>
      <point x="197" y="430" type="line"/>
    </contour>
    <contour>
      <point x="350" y="694" type="line"/>
      <point x="276" y="429" type="line"/>
      <point x="263" y="472" type="line"/>
      <point x="327" y="703" type="line"/>
    </contour>
    <contour>
      <point x="247" y="429" type="line"/>
      <point x="173" y="693" type="line"/>
      <point x="173" y="694" type="line"/>
      <point x="197" y="703" type="line"/>
      <point x="198" y="703" type="line"/>
      <point x="276" y="430" type="line"/>
      <point x="276" y="429" type="line"/>
    </contour>
    <contour>
      <point x="328" y="430" type="line"/>
      <point x="327" y="703" type="line"/>
      <point x="328" y="703" type="line"/>
      <point x="351" y="693" type="line"/>
      <point x="351" y="430" type="line"/>
    </contour>
  </outline>
</glyph>
<glyph name="greaterequal" format="2">
  <advance width="297"/>
  <unicode hex="2265"/>
  <outline>
    <contour>
      <point x="53" y="199" type="line"/>
      <point x="53" y="223" type="line"/>
      <point x="244" y="223" type="line"/>
      <point x="244" y="199" type="line"/>
    </contour>
    <contour>
      <point x="102" y="443" type="line"/>
      <point x="244" y="362" type="line"/>
      <point x="244" y="361" type="line"/>
      <point x="195" y="361" type="line"/>
      <point x="53" y="442" type="line"/>
      <point x="53" y="443" type="line"/>
    </contour>
    <contour>
      <point x="102" y="279" type="line"/>
      <point x="53" y="279" type="line"/>
      <point x="53" y="280" type="line"/>
      <point x="195" y="361" type="line"/>
      <point x="244" y="361" type="line"/>
      <point x="244" y="360" type="line"/>
    </contour>
  </outline>
</glyph>
<glyph name="rightanglebracket-math.color1" format="2">
  <advance width="600"/>
  <unicode hex="27E9"/>
  <outline>
    <contour>
      <point x="76" y="700" type="line"/>
      <point x="221" y="351" type="line"/>
      <point x="221" y="350" type="line"/>
      <point x="198" y="350" type="line"/>
      <point x="53" y="699" type="line"/>
      <point x="53" y="700" type="line"/>
    </contour>
  </outline>
</glyph>
<glyph name="rightanglebracket-math" format="2">
  <advance width="274"/>
  <unicode hex="27E9"/>
  <outline>
    <contour>
      <point x="76" y="0" type="line"/>
      <point x="53" y="0" type="line"/>
      <point x="53" y="1" type="line"/>
      <point x="198" y="350" type="line"/>
      <point x="221" y="350" type="line"/>
      <point x="221" y="349" type="line"/>
    </contour>
    <contour>
      <point x="76" y="700" type="line"/>
      <point x="221" y="351" type="line"/>
      <point x="221" y="350" type="line"/>
      <point x="198" y="350" type="line"/>
      <point x="53" y="699" type="line"/>
      <point x="53" y="700" type="line"/>
    </contour>
  </outline>
</glyph>
<glyph name="fi" format="2">
  <advance width="304"/>
  <unicode hex="FB01"/>
  <anchor x="242" y="0" name="bottom_1"/>
  <outline>
    <contour>
      <point x="74" y="353" type="line"/>
      <point x="51" y="377" type="line"/>
      <point x="128" y="377" type="line"/>
      <point x="128" y="353" type="line"/>
    </contour>
    <contour>
      <point x="50" y="677" type="line"/>
      <point x="73" y="700" type="line"/>
      <point x="74" y="700" type="line"/>
      <point x="74" y="377" type="line"/>
      <point x="50" y="377" type="line"/>
    </contour>
    <contour>
      <point x="134" y="700" type="line"/>
      <point x="157" y="677" type="line"/>
      <point x="157" y="676" type="line"/>
      <point x="74" y="676" type="line"/>
      <point x="74" y="700" type="line"/>
    </contour>
    <contour>
      <point x="74" y="353" type="line"/>
      <point x="74" y="0" type="line"/>
      <point x="50" y="0" type="line"/>
      <point x="50" y="377" type="line"/>
      <point x="51" y="377" type="line"/>
    </contour>
    <contour>
      <point x="230" y="480" type="line"/>
      <point x="253" y="503" type="line"/>
      <point x="254" y="503" type="line"/>
      <point x="254" y="0" type="line"/>
      <point x="230" y="0" type="line"/>
    </contour>
    <contour>
      <point x="254" y="565" type="line"/>
      <point x="231" y="542" type="line"/>
      <point x="230" y="542" type="line"/>
      <point x="230" y="615" type="line"/>
      <point x="254" y="615" type="line"/>
    </contour>
  </outline>
</glyph>
<glyph name="fl" format="2">
  <advance width="346"/>
  <unicode hex="FB02"/>
  <anchor x="272" y="0" name="bottom_1"/>
  <anchor x="254" y="730" name="top_1"/>
  <outline>
    <contour>
      <point x="74" y="353" type="line"/>
      <point x="51" y="377" type="line"/>
      <point x="128" y="377" type="line"/>
      <point x="128" y="353" type="line"/>
    </contour>
    <contour>
      <point x="50" y="677" type="line"/>
      <point x="73" y="700" type="line"/>
      <point x="74" y="700" type="line"/>
      <point x="74" y="377" type="line"/>
      <point x="50" y="377" type="line"/>
    </contour>
    <contour>
      <point x="134" y="700" type="line"/>
      <point x="157" y="677" type="line"/>
      <point x="157" y="676" type="line"/>
      <point x="74" y="676" type="line"/>
      <point x="74" y="700" type="line"/>
    </contour>
    <contour>
      <point x="74" y="353" type="line"/>
      <point x="74" y="0" type="line"/>
      <point x="50" y="0" type="line"/>
      <point x="50" y="377" type="line"/>
      <point x="51" y="377" type="line"/>
    </contour>
    <contour>
      <point x="230" y="730" type="line"/>
      <point x="254" y="730" type="line"/>
      <point x="254" y="0" type="line"/>
      <point x="253" y="0" type="line"/>
      <point x="230" y="23" type="line"/>
    </contour>
    <contour>
      <point x="316" y="0" type="line"/>
      <point x="254" y="0" type="line"/>
      <point x="254" y="24" type="line"/>
      <point x="316" y="24" type="line"/>
      <point x="316" y="23" type="line"/>
    </contour>
  </outline>
</glyph>
<glyph name="brevecomb_hookabovecomb.case.color3" format="2">
  <outline>
    <contour>
      <point x="350" y="902" type="line"/>
      <point x="273" y="902" type="line"/>
      <point x="273" y="926" type="line"/>
      <point x="332" y="926" type="line"/>
      <point x="350" y="903" type="line"/>
    </contour>
  </outline>
</glyph>
<glyph name="brevecomb_tildecomb.case.color1" format="2">
  <outline>
    <contour>
      <point x="324" y="783" type="line"/>
      <point x="355" y="820" type="line"/>
      <point x="387" y="820" type="line"/>
      <point x="387" y="819" type="line"/>
      <point x="356" y="783" type="line"/>
    </contour>
  </outline>
</glyph>
<glyph name="caroncomb.alt.case" format="2">
  <anchor x="299" y="700" name="_top"/>
  <outline>
    <contour>
      <point x="351" y="570" type="line"/>
      <point x="349" y="699" type="line"/>
      <point x="349" y="700" type="line"/>
      <point x="377" y="700" type="line"/>
      <point x="372" y="570" type="line"/>
    </contour>
  </outline>
</glyph>
<glyph name="circumflexcomb_acutecomb.case.color0" format="2">
  <outline>
    <contour>
      <point x="367" y="810" type="line"/>
      <point x="392" y="900" type="line"/>
      <point x="420" y="900" type="line"/>
      <point x="420" y="899" type="line"/>
      <point x="388" y="810" type="line"/>
    </contour>
  </outline>
</glyph>
<glyph name="f_f_i.color6" format="2">
  <advance width="600"/>
  <outline>
    <contour>
      <point x="317" y="700" type="line"/>
      <point x="340" y="677" type="line"/>
      <point x="340" y="676" type="line"/>
      <point x="257" y="676" type="line"/>
      <point x="257" y="700" type="line"/>
    </contour>
  </outline>
</glyph>
<glyph name="f_f_l.color1" format="2">
  <advance width="600"/>
  <outline>
    <contour>
      <point x="50" y="677" type="line"/>
      <point x="73" y="700" type="line"/>
      <point x="74" y="700" type="line"/>
      <point x="74" y="377" type="line"/>
      <point x="50" y="377" type="line"/>
    </contour>
  </outline>
</glyph>
<glyph name="f_f_l.color5" format="2">
  <advance width="600"/>
  <outline>
    <contour>
      <point x="233" y="677" type="line"/>
      <point x="256" y="700" type="line"/>
      <point x="257" y="700" type="line"/>
      <point x="257" y="377" type="line"/>
      <point x="233" y="377" type="line"/>
    </contour>
  </outline>
</glyph>
<glyph name="f_f_l.color9" format="2">
  <advance width="600"/>
  <outline>
    <contour>
      <point x="499" y="0" type="line"/>
      <point x="437" y="0" type="line"/>
      <point x="437" y="24" type="line"/>
      <point x="499" y="24" type="line"/>
      <point x="499" y="23" type="line"/>
    </contour>
  </outline>
</glyph>
<glyph name="four.lf.color2" format="2">
  <advance width="600"/>
  <outline>
    <contour>
      <point x="227" y="0" type="line"/>
      <point x="203" y="0" type="line"/>
      <point x="203" y="298" type="line"/>
      <point x="204" y="298" type="line"/>
      <point x="227" y="274" type="line"/>
    </contour>
  </outline>
</glyph>
<glyph name="macroncomb.case" format="2">
  <anchor x="306" y="700" name="_top"/>
  <outline>
    <contour>
      <point x="381" y="801" type="line"/>
      <point x="231" y="801" type="line"/>
      <point x="231" y="825" type="line"/>
      <point x="381" y="825" type="line"/>
    </contour>
  </outline>
</glyph>
<glyph name="nine.lf.color3" format="2">
  <advance width="600"/>
  <outline>
    <contour>
      <point x="208" y="317" type="line"/>
      <point x="208" y="293" type="line"/>
      <point x="72" y="293" type="line"/>
      <point x="72" y="316" type="line"/>
      <point x="72" y="317" type="line"/>
    </contour>
  </outline>
</glyph>
<glyph name="three.lf.color1" format="2">
  <advance width="600"/>
  <outline>
    <contour>
      <point x="68" y="670" type="line"/>
      <point x="193" y="670" type="line"/>
      <point x="193" y="646" type="line"/>
      <point x="45" y="646" type="line"/>
      <point x="45" y="647" type="line"/>
    </contour>
  </outline>
</glyph>
<glyph name="three.lf.color4" format="2">
  <advance width="600"/>
  <outline>
    <contour>
      <point x="58" y="0" type="line"/>
      <point x="35" y="23" type="line"/>
      <point x="35" y="24" type="line"/>
      <point x="193" y="24" type="line"/>
      <point x="193" y="23" type="line"/>
      <point x="193" y="0" type="line"/>
    </contour>
  </outline>
</glyph>
<glyph name="zero.lf.color0" format="2">
  <advance width="600"/>
  <outline>
    <contour>
      <point x="200" y="24" type="line"/>
      <point x="70" y="652" type="line"/>
      <point x="93" y="652" type="line"/>
      <point x="223" y="25" type="line"/>
      <point x="223" y="24" type="line"/>
    </contour>
  </outline>
</glyph>
